<?xml version="1.0" standalone="no"?>
<!DOCTYPE svg PUBLIC "-//W3C//DTD SVG 20010904//EN"
 "http://www.w3.org/TR/2001/REC-SVG-20010904/DTD/svg10.dtd">
<svg version="1.0" xmlns="http://www.w3.org/2000/svg"
 width="401.000000pt" height="490.000000pt" viewBox="0 0 401.000000 490.000000"
 preserveAspectRatio="xMidYMid meet">

<g transform="translate(0.000000,490.000000) scale(0.100000,-0.100000)"
fill="#000000" stroke="none">
<path d="M3934 4876 c-10 -26 4 -48 28 -44 17 2 23 10 23 28 0 18 -6 26 -23
28 -13 2 -25 -3 -28 -12z"/>
<path d="M0 1340 l0 -1340 1480 0 1480 0 0 1340 0 1340 -1480 0 -1480 0 0
-1340z m1997 689 c268 -265 515 -508 548 -540 l59 -59 -34 -35 -34 -35 35 -36
34 -36 -550 -543 -550 -543 -235 228 c-129 126 -377 371 -550 544 l-314 316
34 35 34 35 -34 35 -34 35 544 540 c300 296 548 539 552 539 4 1 226 -216 495
-480z"/>
<path d="M974 1959 c-291 -287 -530 -524 -532 -528 -1 -4 9 -18 23 -31 l26
-24 127 124 c70 69 297 293 504 499 l377 375 63 -59 c35 -32 261 -256 504
-497 243 -241 446 -438 451 -438 5 0 19 10 31 23 l21 23 -382 379 c-210 209
-450 447 -533 528 l-150 148 -530 -522z"/>
<path d="M1028 1874 c-260 -257 -484 -478 -498 -491 l-25 -25 500 -492 500
-493 497 491 496 491 -241 243 c-133 134 -358 356 -499 493 l-257 250 -473
-467z m12 -488 c0 -113 -4 -207 -11 -223 -12 -33 -68 -93 -86 -93 -20 0 -16
14 13 41 48 44 54 73 54 272 0 101 3 187 7 190 19 20 23 -10 23 -187z m299 36
c35 -84 68 -149 71 -145 4 4 38 74 75 156 38 81 74 147 80 147 7 0 21 -67 38
-182 32 -212 31 -208 13 -208 -10 0 -19 32 -31 118 -10 64 -21 135 -24 157
l-7 40 -53 -110 c-29 -60 -60 -127 -68 -148 -10 -23 -21 -37 -30 -35 -8 2 -39
62 -71 141 -31 75 -59 137 -62 137 -4 0 -14 -53 -24 -117 -26 -177 -27 -183
-42 -183 -19 0 -18 8 11 184 34 202 35 208 48 203 6 -2 40 -72 76 -155z m472
-7 c38 -88 72 -159 76 -158 4 0 38 72 74 160 46 108 72 159 84 162 12 2 16 -2
12 -11 -46 -122 -163 -378 -172 -378 -9 0 -126 256 -172 378 -4 9 0 13 12 11
13 -3 38 -51 86 -164z"/>
<path d="M459 1314 l-24 -26 535 -528 534 -527 533 526 532 526 -27 28 -26 28
-271 -268 c-148 -148 -376 -373 -506 -501 l-236 -234 -505 501 c-278 276 -508
501 -510 501 -3 0 -15 -12 -29 -26z"/>
</g>
</svg>
