<?xml version="1.0" encoding="UTF-8"?>
<svg version="1.1" xmlns="http://www.w3.org/2000/svg" width="1200" height="2200">
<path d="M0 0 C2.4665113 2.25570836 4.82195012 4.59660419 7.17041016 6.97583008 C7.92193359 7.72864258 8.67345703 8.48145508 9.44775391 9.25708008 C20.37140146 20.83069515 26.10796563 35.18920093 29.42041016 50.53833008 C29.58371826 51.29315674 29.74702637 52.0479834 29.9152832 52.82568359 C31.91260164 62.75907068 32.32206088 72.80190989 32.29066467 82.90985107 C32.29194631 84.45656286 32.29194631 84.45656286 32.29325384 86.03452134 C32.29488668 89.45215036 32.28942361 92.8697291 32.28393555 96.28735352 C32.28365317 98.75214639 32.28381239 101.21693935 32.28437805 103.68173218 C32.28460497 108.96901838 32.28178868 114.25628926 32.27614021 119.54357147 C32.26797906 127.18789266 32.26540528 134.83220789 32.26415222 142.47653297 C32.26196893 154.88190103 32.25532849 167.28726248 32.24584961 179.69262695 C32.23665676 191.73624641 32.2295851 203.77986407 32.2253418 215.82348633 C32.22494771 216.93888065 32.22494771 216.93888065 32.22454567 218.07680818 C32.22324053 221.80757837 32.22197685 225.53834858 32.22073376 229.26911879 C32.21038365 260.17136167 32.19195752 291.0735924 32.17041016 321.97583008 C13.69041016 321.97583008 -4.78958984 321.97583008 -23.82958984 321.97583008 C-25.14958984 314.05583008 -26.46958984 306.13583008 -27.82958984 297.97583008 C-28.81958984 292.53083008 -28.81958984 292.53083008 -29.82958984 286.97583008 C-30.81572266 287.84981445 -30.81572266 287.84981445 -31.82177734 288.74145508 C-65.53456241 317.79474952 -103.4665073 330.8187872 -147.82958984 328.97583008 C-174.18236075 326.97927269 -199.39328545 318.13514704 -217.38427734 298.13598633 C-234.24563114 276.98832878 -239.005901 248.94866112 -236.60693359 222.52319336 C-233.50571626 195.13092688 -221.87639034 170.81110214 -200.42285156 153.22094727 C-171.62746123 130.71765418 -135.36432417 122.84953313 -99.82958984 118.97583008 C-98.403927 118.81570435 -98.403927 118.81570435 -96.94946289 118.65234375 C-85.34593273 117.55198401 -73.65925176 117.86800987 -62.01708984 117.91333008 C-59.76383563 117.91835496 -57.51058033 117.92291612 -55.25732422 117.92700195 C-49.78138879 117.9379296 -44.30549448 117.9545894 -38.82958984 117.97583008 C-38.92407664 112.49866881 -39.03036503 107.02190108 -39.14697266 101.54516602 C-39.18494379 99.68715462 -39.2198483 97.82907765 -39.25146484 95.97094727 C-39.56610561 77.70211782 -40.17184654 59.81776708 -53.07958984 45.47583008 C-67.48540456 32.37963488 -84.70226834 28.75356107 -103.82958984 27.97583008 C-104.71001953 27.93458008 -105.59044922 27.89333008 -106.49755859 27.85083008 C-139.4268216 27.09055849 -172.9438216 35.33950928 -203.75537109 46.34692383 C-205.82958984 46.97583008 -205.82958984 46.97583008 -208.82958984 46.97583008 C-210.09918475 41.99690653 -211.36238018 37.0164177 -212.61987305 32.03442383 C-213.04783826 30.34258098 -213.47749771 28.65116571 -213.90893555 26.96020508 C-214.53156753 24.51862393 -215.14793213 22.07553009 -215.76318359 19.63208008 C-215.95488632 18.88591431 -216.14658905 18.13974854 -216.34410095 17.37097168 C-217.54203088 12.58126143 -218.30314336 7.88609591 -218.82958984 2.97583008 C-159.46390505 -23.34669054 -55.56322305 -48.68421163 0 0 Z M-154.82958984 187.97583008 C-165.9119729 201.31265937 -166.7273534 217.40377992 -165.82958984 233.97583008 C-164.34947596 246.218128 -159.05736834 257.62863481 -149.82958984 265.97583008 C-136.47454109 275.9863101 -120.2529993 278.46866339 -103.99365234 276.51489258 C-82.39351656 273.14346403 -62.60568795 262.78855903 -45.82958984 248.97583008 C-45.24597687 248.68153107 -44.66236389 248.38723206 -44.06106567 248.08401489 C-41.6102164 246.61097457 -40.3782386 245.4075732 -38.82958984 242.97583008 C-37.80960407 236.95259916 -38.01540027 230.98075901 -38.14599609 224.88989258 C-38.15906067 223.104868 -38.16902079 221.31981823 -38.17601013 219.53475952 C-38.20266854 214.84875529 -38.27137041 210.164283 -38.34893799 205.47888184 C-38.42069596 200.69291914 -38.45254835 195.90670755 -38.48779297 191.12036133 C-38.56274464 181.73817981 -38.68213075 172.3571326 -38.82958984 162.97583008 C-44.71133246 162.9254561 -50.59294281 162.88966316 -56.47485352 162.8659668 C-58.46543572 162.85606261 -60.45600403 162.84253564 -62.4465332 162.82495117 C-94.17301477 162.55220771 -131.36417705 163.59098885 -154.82958984 187.97583008 Z " fill="#5282A1" transform="translate(459.82958984375,1737.024169921875)"/>
<path d="M0 0 C17.85392309 16.98862795 28.57572389 39.90223686 29.50926602 64.72872829 C29.54336207 67.50545882 29.54647237 70.28056496 29.53822327 73.05749512 C29.5395049 74.64808298 29.5395049 74.64808298 29.54081243 76.27080393 C29.54245491 79.81141271 29.53696606 83.35197374 29.53149414 86.89257812 C29.53121198 89.43559773 29.53137057 91.97861741 29.53193665 94.52163696 C29.5321641 99.99015405 29.52933416 105.45865586 29.52369881 110.9271698 C29.51555646 118.83362768 29.51296578 126.7400798 29.51171082 134.64654142 C29.50952459 147.47562724 29.50287616 160.3047067 29.4934082 173.13378906 C29.48422297 185.59277311 29.47714757 198.05175543 29.47290039 210.51074219 C29.47250631 211.66355679 29.47250631 211.66355679 29.47210426 212.83966058 C29.47079918 216.69538588 29.46953548 220.55111119 29.46829236 224.40683651 C29.45793312 256.37148939 29.44032649 288.33613443 29.41796875 320.30078125 C21.60344123 320.32604688 13.78892417 320.3436123 5.97436523 320.35571289 C3.31355394 320.36075508 0.65274543 320.36758861 -2.00805664 320.3762207 C-5.82308641 320.38829134 -9.63807969 320.39401054 -13.453125 320.3984375 C-15.24996986 320.40617943 -15.24996986 320.40617943 -17.08311462 320.41407776 C-18.73471336 320.41419106 -18.73471336 320.41419106 -20.41967773 320.41430664 C-21.39452621 320.41652725 -22.36937469 320.41874786 -23.37376404 320.42103577 C-25.58203125 320.30078125 -25.58203125 320.30078125 -26.58203125 319.30078125 C-27.42452227 314.95268895 -28.00399994 310.55764918 -28.64453125 306.17578125 C-28.83080078 304.95117188 -29.01707031 303.7265625 -29.20898438 302.46484375 C-29.47291992 300.67820312 -29.47291992 300.67820312 -29.7421875 298.85546875 C-29.90340088 297.76733887 -30.06461426 296.67920898 -30.23071289 295.55810547 C-30.60206928 292.11499434 -30.64080715 288.76117815 -30.58203125 285.30078125 C-34.68645169 287.96622588 -38.51146032 290.79570645 -42.33203125 293.86328125 C-75.79642637 319.99691298 -115.73510755 331.55201065 -158.01757812 326.48071289 C-178.04019404 323.68015184 -197.425055 317.12869429 -212.58203125 303.30078125 C-213.4946875 302.52541016 -213.4946875 302.52541016 -214.42578125 301.734375 C-228.99296169 288.52459092 -237.10536361 266.49352285 -238.58203125 247.30078125 C-240.00121948 216.63246966 -236.42144557 188.21689249 -215.48583984 164.46289062 C-184.02149617 130.01080232 -136.22608413 118.70708134 -91.09790039 116.39782715 C-74.28142877 115.74915685 -57.40551448 116.09699325 -40.58203125 116.30078125 C-40.67712385 111.59060518 -40.78351197 106.88085263 -40.89941406 102.17114258 C-40.93718792 100.57615748 -40.97211982 98.98110198 -41.00390625 97.38598633 C-41.41627789 76.92848698 -42.23095697 57.06217223 -57.234375 41.59765625 C-71.74603202 28.07620642 -95.1267478 25.66974416 -114.15625 26.1171875 C-144.98533828 27.76937353 -176.52255359 32.95682734 -205.25976562 44.66186523 C-207.85768812 45.37662167 -209.04888702 45.03815628 -211.58203125 44.30078125 C-212.87099871 38.98226686 -214.15252264 33.66203424 -215.42724609 28.34008789 C-215.86173741 26.53067944 -216.29824231 24.72175326 -216.73681641 22.91333008 C-217.3676374 20.31065707 -217.99114579 17.70632347 -218.61328125 15.1015625 C-218.81014526 14.29616531 -219.00700928 13.49076813 -219.20983887 12.66096497 C-220.12539309 8.79721049 -220.83466498 5.30432418 -220.58203125 1.30078125 C-211.21025512 -3.27480952 -201.78410089 -6.94131501 -191.89453125 -10.19921875 C-191.18125671 -10.43600342 -190.46798218 -10.67278809 -189.73309326 -10.91674805 C-176.20159769 -15.3882668 -162.58058282 -18.98464298 -148.58203125 -21.69921875 C-147.7410791 -21.86357422 -146.90012695 -22.02792969 -146.03369141 -22.19726562 C-99.9233261 -30.93732266 -37.73036998 -33.0497492 0 0 Z M-149.58203125 179.30078125 C-150.23816406 179.76097656 -150.89429688 180.22117187 -151.5703125 180.6953125 C-161.71499773 188.50064682 -166.46800965 201.10812499 -168.33203125 213.42578125 C-168.41453125 214.70453125 -168.49703125 215.98328125 -168.58203125 217.30078125 C-168.63359375 218.09355469 -168.68515625 218.88632813 -168.73828125 219.703125 C-169.24459341 234.06973261 -165.61149864 248.3874166 -156.62890625 259.77734375 C-145.90789123 271.04707213 -131.86362841 275.10568619 -116.58203125 275.55078125 C-89.80914216 275.27477208 -65.86874905 261.63635671 -45.58203125 245.30078125 C-44.732957 244.77279938 -43.88388275 244.2448175 -43.00907898 243.70083618 C-40.25781299 240.98016884 -39.99843457 239.52786724 -39.95993042 235.72619629 C-39.9779068 234.99251831 -39.99588318 234.25884033 -40.0144043 233.50292969 C-40.01367416 232.72205994 -40.01294403 231.94119019 -40.01219177 231.13665771 C-40.01567006 228.56044591 -40.0545399 225.98605139 -40.09375 223.41015625 C-40.10307733 221.62226347 -40.11019382 219.83435789 -40.1151886 218.04644775 C-40.13426481 213.34432595 -40.18337072 208.64297835 -40.2387085 203.94116211 C-40.28988769 199.14187087 -40.31269978 194.34245432 -40.33789062 189.54296875 C-40.39148905 180.12856639 -40.47680925 170.71473824 -40.58203125 161.30078125 C-97.65334296 158.99916684 -97.65334296 158.99916684 -149.58203125 179.30078125 Z " fill="#5282A1" transform="translate(1096.58203125,1738.69921875)"/>
<path d="M0 0 C27.65247069 26.88032492 39.62744135 68.74286815 40.35351562 106.35351562 C40.76472409 174.95056343 7.11692799 236.63138407 -36 288 C-36.85949407 289.03505739 -37.71886376 290.07021807 -38.578125 291.10546875 C-44.66386199 298.40242333 -50.99512069 305.43131759 -57.48388672 312.37060547 C-59.00019614 314.0002108 -60.5038853 315.64055497 -62.00390625 317.28515625 C-70.58188794 326.68028813 -79.31441825 335.83912149 -88.93408203 344.17919922 C-92.31103194 347.15548053 -95.5519984 350.27247856 -98.8125 353.375 C-104.10609832 358.37467927 -109.47301239 363.16450987 -115.171875 367.703125 C-118.62809004 370.51010627 -121.96533285 373.43968715 -125.3125 376.375 C-130.61339333 381.00684205 -136.01957054 385.44588544 -141.58032227 389.76074219 C-151.96591554 397.83373036 -162.17456697 406.16210287 -171.87109375 415.0546875 C-173.92408992 416.9306363 -176.01592731 418.75007915 -178.125 420.5625 C-181.60433806 423.58679385 -184.83248742 426.81086611 -188.0625 430.09765625 C-189.83246478 431.83550473 -191.64906999 433.42398287 -193.5625 435 C-196.69381835 437.63283494 -199.30011493 440.51502987 -201.94140625 443.6328125 C-203.93727612 445.92787349 -206.01185464 448.13187866 -208.10864258 450.33447266 C-243.48559768 487.73345627 -266.32178775 533.7642297 -265.13183594 585.76953125 C-262.74317668 644.30052987 -221.26426683 696.05857693 -189.03466797 741.78857422 C-146 802.90295659 -146 802.90295659 -146 815 C-149.006818 813.66000502 -150.99762609 812.20154709 -153.25 809.8125 C-155.62823921 807.36401744 -158.03799459 805.03928947 -160.625 802.8125 C-166.55319936 797.69217425 -172.26432243 792.33350461 -178 787 C-178.58700684 786.45424316 -179.17401367 785.90848633 -179.77880859 785.34619141 C-182.89646419 782.44559315 -186.00928774 779.53995547 -189.1171875 776.62890625 C-191.59089464 774.31234792 -194.07508045 772.00818511 -196.5703125 769.71484375 C-207.00914615 760.06678937 -217.06686912 750.04160004 -227.125 740 C-227.8556366 739.2719516 -228.58627319 738.5439032 -229.33905029 737.79379272 C-231.4607848 735.67798485 -233.57867441 733.55840512 -235.6953125 731.4375 C-236.32709412 730.8076973 -236.95887573 730.17789459 -237.60980225 729.52900696 C-241.35935617 725.76022599 -244.92468322 721.87894925 -248.390625 717.8474884 C-251.12585715 714.70756783 -254.01100578 711.70946611 -256.875 708.6875 C-261.73677601 703.51725357 -266.38745997 698.25743549 -270.81640625 692.70703125 C-272.75569473 690.30286861 -274.75088172 687.95995796 -276.77441406 685.62670898 C-312.79387278 643.91002931 -346.94588596 590.33478167 -343.78515625 533.140625 C-341.01501704 496.62176423 -321.27399139 467.95635869 -298 441 C-297.41863281 440.31679688 -296.83726562 439.63359375 -296.23828125 438.9296875 C-292.27924249 434.32244341 -288.13797506 429.88345515 -284 425.4375 C-283.41822998 424.81182129 -282.83645996 424.18614258 -282.23706055 423.54150391 C-276.54084879 417.44899913 -270.74560008 411.58196984 -264.421875 406.140625 C-261.90424552 403.91536539 -259.45337952 401.63018746 -257.00415039 399.33032227 C-251.43582112 394.10323183 -245.79685583 389.07788088 -239.83203125 384.30078125 C-236.55799463 381.64090874 -233.37472518 378.88761274 -230.1875 376.125 C-225.03243994 371.67322235 -219.77214203 367.39556619 -214.39355469 363.2175293 C-209.85447226 359.68832332 -205.38834699 356.07717163 -200.9375 352.4375 C-194.64301391 347.3000004 -188.25918366 342.307831 -181.80029297 337.37792969 C-170.28507831 328.56427746 -158.93115531 319.56855019 -147.70556641 310.38964844 C-145.37881824 308.49387824 -143.03469693 306.62036479 -140.6875 304.75 C-127.89342473 294.53177017 -115.35933096 284.02965005 -103.23828125 273.01953125 C-101.12022552 271.10847573 -98.97285433 269.23794417 -96.8125 267.375 C-93.68926835 264.65860213 -90.77138729 261.79834452 -87.87646484 258.84204102 C-86.06150941 257.06038102 -84.18489908 255.414526 -82.24609375 253.76953125 C-78.07762921 250.14357095 -74.30335442 246.24779154 -70.5625 242.1875 C-69.90926758 241.48318848 -69.25603516 240.77887695 -68.58300781 240.05322266 C-67.29364643 238.66062287 -66.00629269 237.26616091 -64.72119141 235.86962891 C-63.29261661 234.3178522 -61.85627953 232.7732257 -60.41796875 231.23046875 C-45.62775427 215.16110059 -32.68140489 197.03418337 -22 178 C-21.5683252 177.23768066 -21.13665039 176.47536133 -20.69189453 175.68994141 C-8.88653877 154.64816246 -0.87480133 132.62247478 4 109 C4.17789062 108.15453613 4.35578125 107.30907227 4.5390625 106.43798828 C10.7139631 75.50835225 7.89953987 41.93844734 1.27050781 11.3762207 C0.43672272 7.5124476 -0.23188582 3.98203925 0 0 Z " fill="#F8981C" transform="translate(754,17)"/>
<path d="M0 0 C25.08 0 50.16 0 76 0 C78.73413441 6.83533603 81.20529423 13.49922695 83.3359375 20.51171875 C83.64741226 21.524086 83.95888702 22.53645325 84.27980042 23.57949829 C84.95765827 25.78441612 85.63359935 27.98992394 86.30783081 30.19595337 C87.40401624 33.78243486 88.50518645 37.3673529 89.60766602 40.9519043 C90.80109259 44.83231261 91.99437288 48.71276326 93.18586731 52.59376526 C97.61063756 67.00434148 102.07408543 81.40289145 106.53884888 95.80111694 C107.94020679 100.32064059 109.34016697 104.84059655 110.73999023 109.3605957 C114.99159426 123.0871523 119.24937474 136.81170793 123.53037834 150.52912712 C124.95139053 155.08372199 126.37009616 159.63903633 127.78933716 164.19418335 C128.89134853 167.72704615 129.9972205 171.25868349 131.10327148 174.7902832 C138.30577313 197.85574755 144.65588796 220.98147395 149.9375 244.5625 C150.43496605 246.7611992 150.93301123 248.95976746 151.43164062 251.15820312 C152.62772237 256.43732298 153.81684341 261.71796914 155 267 C157.16714432 263.74928352 158.16576013 260.87483639 159.3984375 257.16796875 C159.62914948 256.47741898 159.85986145 255.7868692 160.0975647 255.07539368 C160.86200109 252.78114749 161.61905972 250.48455871 162.375 248.1875 C162.63877441 247.38924805 162.90254883 246.59099609 163.17431641 245.76855469 C164.85271202 240.68806022 166.51930248 235.60379446 168.17858887 230.51702881 C168.96520739 228.10661409 169.75443479 225.69706635 170.54394531 223.28759766 C178.8922993 197.75372005 186.17448225 171.97971168 193 146 C193.29423859 144.88492065 193.29423859 144.88492065 193.59442139 143.74731445 C201.93040121 112.14364539 208.73294564 80.20113725 214.3125 48 C214.47153809 47.08232849 214.63057617 46.16465698 214.79443359 45.21917725 C217.3870352 30.17321566 219.67808917 15.09242038 222 0 C246.75 0 271.5 0 297 0 C294.68961607 16.1726875 294.68961607 16.1726875 293.40625 22.60546875 C293.1852916 23.73122818 293.1852916 23.73122818 292.95986938 24.87973022 C292.47871799 27.31678059 291.99039161 29.752293 291.5 32.1875 C291.32837341 33.0432663 291.15674683 33.89903259 290.97991943 34.7807312 C273.15634775 123.33239083 247.59056857 210.47667934 192 341 C162.96 341 133.92 341 104 341 C94.82892507 313.48677521 94.82892507 313.48677521 92.16015625 304.59765625 C91.84052917 303.54424545 91.5209021 302.49083466 91.19158936 301.40550232 C90.50495024 299.14199327 89.81965643 296.87807573 89.13565063 294.61376953 C87.19740148 288.19971643 85.24680408 281.78941586 83.296875 275.37890625 C83.08826654 274.69275364 82.87965809 274.00660103 82.66472816 273.29965591 C77.36660385 255.87612183 71.98770169 238.47759281 66.60950851 221.0786438 C64.19286892 213.25984064 61.77793736 205.44050965 59.36328125 197.62109375 C59.09648623 196.75713863 58.8296912 195.89318352 58.55481148 195.00304794 C52.85041542 176.52883421 47.16836226 158.04779953 41.5 139.5625 C41.26922131 138.80994808 41.03844261 138.05739616 40.80067062 137.28203964 C34.91051193 118.07326532 29.03856207 98.85896378 23.1796875 79.640625 C22.89433891 78.704624 22.60899033 77.76862301 22.31499481 76.80425835 C19.52368097 67.64761991 16.73337025 58.49067692 13.94564629 49.33294487 C12.9213037 45.96816655 11.89655419 42.60351223 10.87176895 39.23886871 C10.17773168 36.9594901 9.48434074 34.67991562 8.79098511 32.40032959 C8.35984498 30.98474059 7.92870286 29.56915219 7.49755859 28.15356445 C7.29257185 27.4784828 7.08758511 26.80340115 6.87638664 26.10786247 C5.80041084 22.57574494 4.70097304 19.05282952 3.56915283 15.53817749 C3.21978133 14.44606476 3.21978133 14.44606476 2.86335182 13.33188915 C2.41906941 11.94686852 1.97009945 10.56333941 1.5156002 9.18163776 C0.46543529 5.89994841 0 3.4975012 0 0 Z " fill="#5282A1" transform="translate(532,1718)"/>
<path d="M0 0 C0 0.66 0 1.32 0 2 C-0.6712793 2.03440186 -1.34255859 2.06880371 -2.03417969 2.10424805 C-28.55028641 3.5502143 -53.72642756 7.82652838 -79 16 C-79.94649414 16.29745117 -80.89298828 16.59490234 -81.86816406 16.90136719 C-93.35078234 20.53014133 -104.3604673 24.85058559 -115.25 30 C-116.26118896 30.47397217 -117.27237793 30.94794434 -118.31420898 31.4362793 C-132.4339873 38.23519251 -132.4339873 38.23519251 -142 50 C-142.77294906 52.9180325 -142.88134088 55.09609481 -142 58 C-128.19480586 78.35829262 -80.79633197 83.59326602 -58.84375 87.8203125 C40.61500345 106.64758319 142.99098525 109.96725363 598 89 C598.97632385 88.87151672 599.95264771 88.74303345 600.95855713 88.61065674 C690.69998394 80.46935618 690.69998394 80.46935618 766.0234375 39.5390625 C770.45090388 33.11611831 771.8340241 27.7842249 771 20 C769.15480788 14.38419788 765.51240777 9.68321036 762 5 C773.39583947 8.48300138 783.05664111 14.98361964 789.9375 24.75 C792.79833174 30.80823192 792.72454022 36.56396961 790.5 42.875 C780.56601675 65.50809585 749.54602138 77.28622252 728.25 85.6875 C633.57418715 122.06504897 530.03796659 135.33660675 247.99414062 151.26074219 C241.85935827 151.24936172 235.72474989 151.25614371 229.58997345 151.26762009 C183.7692186 151.34013497 137.9859867 150.08933762 92.25 147.25 C90.88295128 147.16669163 89.51589582 147.08349369 88.14883423 147.00039673 C-0.90151554 141.55813605 -91.47429621 133.85536234 -233.40625 92.92578125 C-237.66472797 87.78012037 -238.61519323 83.44119181 -238.41015625 76.87109375 C-236.55560712 63.88924987 -225.64624367 55.15507548 -215.8046875 47.734375 C-204.98603285 39.81882778 -193.07790379 33.73625097 -181 28 C-180.27280762 27.64969727 -179.54561523 27.29939453 -178.79638672 26.93847656 C-133.36774915 5.17730866 -49.70705951 -26.24052915 0 0 Z " fill="#5282A1" transform="translate(296,1280)"/>
<path d="M0 0 C24.75 0 49.5 0 75 0 C75.02207904 51.15204067 75.04053026 102.30407682 75.05106533 153.4561209 C75.05231591 159.50622905 75.05361025 165.55633718 75.05493164 171.60644531 C75.05532511 173.41301368 75.05532511 173.41301368 75.05572652 175.25607838 C75.0600682 194.71245968 75.06794744 214.168838 75.0771528 233.62521754 C75.08653119 253.61526227 75.09206445 273.60530545 75.09408849 293.59535229 C75.09545505 305.912847 75.09975839 318.23033329 75.10791647 330.54782541 C75.11323564 339.01446107 75.11479263 347.48109243 75.11350138 355.94772963 C75.11286602 360.81969745 75.11378329 365.69165064 75.11920547 370.5636158 C75.25179352 495.99959585 75.25179352 495.99959585 28.56982422 543.45751953 C24.64048178 547.3184193 20.38760303 550.68124777 16 554 C14.91753047 554.85621703 13.83552114 555.7130161 12.75390625 556.5703125 C-2.55497518 568.47365277 -19.9032231 577.18370737 -38 584 C-41.51884046 581.34254236 -44.27738085 578.64926771 -47 575.1875 C-50.74945089 570.50538103 -54.61489595 565.95351807 -58.5625 561.4375 C-60.71280409 558.96217904 -62.85835528 556.48281611 -65 554 C-65.45455566 553.4735791 -65.90911133 552.9471582 -66.37744141 552.40478516 C-67.5552422 551.03000342 -68.71586507 549.64055591 -69.875 548.25 C-70.51179688 547.49203125 -71.14859375 546.7340625 -71.8046875 545.953125 C-72.19914062 545.30859375 -72.59359375 544.6640625 -73 544 C-71.66829722 540.00489166 -69.27566894 539.2787034 -65.75 537.4375 C-40.54583512 523.62013595 -16.34870045 500.02778008 -8 472 C0.62248888 440.60152221 -0.84439411 406.98921943 -0.79939139 374.73091018 C-0.79129684 369.69032398 -0.77763111 364.64975227 -0.76467896 359.60917664 C-0.74304298 350.89910531 -0.72485225 342.18903243 -0.70907402 333.47894859 C-0.6862569 320.88598954 -0.65813127 308.29304662 -0.62875474 295.70010135 C-0.58122295 275.26353502 -0.53792025 254.82696204 -0.49731445 234.39038086 C-0.45788582 214.55085738 -0.41644224 194.71133978 -0.37231445 174.87182617 C-0.36959018 173.64670119 -0.36686591 172.4215762 -0.36405908 171.15932622 C-0.35037839 165.01257211 -0.33665836 158.86581809 -0.32291877 152.71906412 C-0.20918072 101.812721 -0.10310771 50.90636598 0 0 Z " fill="#5382A1" transform="translate(99,1598)"/>
<path d="M0 0 C0 0.66 0 1.32 0 2 C-0.65145996 2.37060547 -1.30291992 2.74121094 -1.97412109 3.12304688 C-17.81028733 12.15018646 -33.44168001 21.44422717 -48.91503906 31.08398438 C-51.76660532 32.85504262 -54.62731825 34.60994742 -57.4921875 36.359375 C-71.01406978 44.65812963 -84.23496095 53.39292219 -97.4375 62.1875 C-98.77518433 63.07749695 -98.77518433 63.07749695 -100.13989258 63.98547363 C-115.55474604 74.25092283 -130.87010467 84.6518862 -145.5625 95.9375 C-146.44107666 96.61006836 -147.31965332 97.28263672 -148.22485352 97.97558594 C-171.13614864 115.53410616 -171.13614864 115.53410616 -192.20703125 135.20703125 C-194.08063654 137.08063654 -196.0416295 138.78707167 -198.0625 140.5 C-201.3293038 143.32448994 -204.18076333 146.29597821 -206.96484375 149.59375 C-208.53754388 151.45321886 -210.13206971 153.27790861 -211.75390625 155.09375 C-232.59796754 178.60752731 -247.5062651 205.58754633 -246.14794922 237.77490234 C-243.93228255 271.09765156 -221.87441281 300.9029943 -203 327 C-202.45666016 327.75200684 -201.91332031 328.50401367 -201.35351562 329.27880859 C-200.23221567 330.83020066 -199.1106335 332.38138879 -197.98876953 333.93237305 C-195.32231281 337.61904267 -192.65838498 341.30750502 -190 345 C-189.56526367 345.60328125 -189.13052734 346.2065625 -188.68261719 346.828125 C-179.33945094 359.85329042 -171.85930072 372.71665191 -167 388 C-166.65839844 389.05960938 -166.31679688 390.11921875 -165.96484375 391.2109375 C-159.8012905 414.43176601 -163.99430241 439.56414271 -174 461 C-174.42490723 461.91362305 -174.42490723 461.91362305 -174.85839844 462.84570312 C-186.36559719 487.0298932 -206.37669132 509.31105727 -227.28515625 525.83984375 C-230.09069019 528.07216068 -232.78734436 530.40605484 -235.5 532.75 C-248.43141579 543.52617982 -262.87247557 552.37449191 -277.30859375 560.96948242 C-278.89845148 561.93812987 -280.45097228 562.96731485 -282 564 C-282.99 563.67 -283.98 563.34 -285 563 C-284.57291748 562.59386475 -284.14583496 562.18772949 -283.70581055 561.76928711 C-263.07296876 542.0114927 -243.24111196 516.49411884 -240 487 C-239.86851562 485.90042969 -239.73703125 484.80085938 -239.6015625 483.66796875 C-236.99265298 455.98454 -246.78084097 431.5631893 -264.18359375 410.35546875 C-266.90890233 407.08980538 -269.67368485 403.85805793 -272.4375 400.625 C-303.39234963 364.40041623 -330.43322456 317.70628014 -332 269 C-332.03996094 267.94425781 -332.07992187 266.88851563 -332.12109375 265.80078125 C-332.96484043 222.27337908 -314.18115698 184.08988132 -286 152 C-285.24976563 151.13761719 -284.49953125 150.27523437 -283.7265625 149.38671875 C-275.44362645 140.01234889 -266.63545551 130.98959826 -257 123 C-256.46455566 122.55076172 -255.92911133 122.10152344 -255.37744141 121.63867188 C-245.2909405 113.19415949 -234.86383413 105.41290844 -224 98 C-223.35144043 97.55527344 -222.70288086 97.11054688 -222.03466797 96.65234375 C-213.56463119 90.86012671 -204.93655478 85.38989364 -196.07568359 80.21582031 C-194.66130356 79.38735494 -193.2502881 78.55312488 -191.84228516 77.71386719 C-142.54615987 48.3427906 -58.66728956 0 0 0 Z " fill="#F8981C" transform="translate(940,320)"/>
<path d="M0 0 C-0.74765625 0.56847656 -1.4953125 1.13695312 -2.265625 1.72265625 C-11.59335104 8.88825721 -11.59335104 8.88825721 -15.5625 19.5625 C-14.83828004 23.98828867 -13.4782919 26.30897581 -10 29 C9.12685732 40.6063902 33.30174712 41.71606166 55 44 C55.8164801 44.08614563 56.63296021 44.17229126 57.47418213 44.26104736 C69.84766174 45.55869077 82.23047447 46.72734698 94.62591553 47.79431152 C96.78051498 47.98098402 98.93447672 48.17364558 101.08837891 48.36816406 C144.25731494 52.14058967 188.93609505 51.68779317 232 47 C232.88770081 46.90525391 233.77540161 46.81050781 234.69000244 46.71289062 C265.88283757 43.37072801 296.76490154 38.43465476 327.64770508 32.95800781 C328.52576813 32.80255493 329.40383118 32.64710205 330.3085022 32.48693848 C332.19124718 32.14631736 334.07196487 31.79438459 335.95101929 31.43395996 C336.91553009 31.25046997 337.88004089 31.06697998 338.8737793 30.87792969 C339.73762741 30.70992859 340.60147552 30.54192749 341.49150085 30.36883545 C346.08570291 29.69333011 349.104741 29.68743174 353.09765625 32.1328125 C353.88382324 32.60195068 354.66999023 33.07108887 355.47998047 33.55444336 C356.33221191 34.07272705 357.18444336 34.59101074 358.0625 35.125 C380.81617223 48.49122822 404.58350723 59.125172 429 69 C428 72 428 72 425.62792969 73.25170898 C424.04093262 73.86767944 424.04093262 73.86767944 422.421875 74.49609375 C421.21756836 74.96619873 420.01326172 75.43630371 418.77246094 75.9206543 C417.43211787 76.42753331 416.09128107 76.93310833 414.75 77.4375 C414.06651489 77.69777985 413.38302979 77.95805969 412.67883301 78.22622681 C349.72267579 102.16311762 284.0976436 115.86970858 217 121 C215.83927979 121.09571289 214.67855957 121.19142578 213.48266602 121.29003906 C197.79196379 122.41418516 182.03542805 122.24456422 166.3125 122.25 C165.14299301 122.25088371 165.14299301 122.25088371 163.94985962 122.25178528 C139.84429396 122.26463621 115.96532963 121.81018776 92 119 C90.72737305 118.86078125 89.45474609 118.7215625 88.14355469 118.578125 C39.47692179 113.18597691 -33.89716652 104.70035259 -66.6328125 63.984375 C-71.40772591 57.05392925 -73.34393635 50.42041533 -72 42 C-67.58426449 28.24406818 -55.20394961 20.32282877 -42.9921875 13.95263672 C-33.65510556 9.32181685 -23.91999597 5.78745657 -14.0625 2.4375 C-13.01336426 2.07841553 -11.96422852 1.71933105 -10.88330078 1.34936523 C-9.90216309 1.02653564 -8.92102539 0.70370605 -7.91015625 0.37109375 C-7.03496338 0.08161865 -6.15977051 -0.20785645 -5.25805664 -0.50610352 C-3 -1 -3 -1 0 0 Z " fill="#5282A1" transform="translate(411,1166)"/>
<path d="M0 0 C1.48242034 0.00503176 2.96484236 0.00959166 4.44726562 0.01367188 C8.0273795 0.0245293 11.60742843 0.04169865 15.1875 0.0625 C12.38512733 2.86487267 9.13288635 3.30022499 5.39453125 4.2421875 C3.73431245 4.67440171 2.07415921 5.10686785 0.4140625 5.53955078 C-0.46733398 5.76676819 -1.34873047 5.9939856 -2.25683594 6.22808838 C-39.43354476 15.84238365 -77.1614628 26.25648152 -111.8125 43.0625 C-112.88395264 43.57876953 -112.88395264 43.57876953 -113.97705078 44.10546875 C-128.27083487 50.73198931 -128.27083487 50.73198931 -137.625 62.6875 C-137.81221024 66.05728424 -137.65209867 67.93585541 -135.49609375 70.59375 C-92.89258867 107.7606129 98.00258119 93.18437267 236.1875 86.0625 C315.02025283 80.68199758 393.43220383 70.94013089 471.40429688 58.2487793 C472.66978363 58.04306808 473.93527039 57.83735687 475.23910522 57.62541199 C477.58410342 57.2430243 479.92872142 56.85829394 482.27285767 56.47065735 C488.23570263 55.49439927 494.17551125 54.66991465 500.1875 54.0625 C497.47184538 56.93539228 494.8538132 58.34939945 491.25390625 60.03125 C490.04512763 60.60245784 488.83638903 61.17375036 487.62768555 61.74511719 C486.67845718 62.18954163 486.67845718 62.18954163 485.71005249 62.64294434 C476.14216377 67.13170487 466.63502193 71.71258728 457.375 76.8125 C456.66867432 77.19857422 455.96234863 77.58464844 455.23461914 77.98242188 C451.60752816 80.0087018 448.08718316 82.11355303 444.65478516 84.45483398 C435.08353961 90.8948771 426.4372265 94.29720306 415.1875 96.625 C413.5462808 96.98653302 411.90542183 97.34970449 410.26489258 97.71435547 C404.9168307 98.88619855 399.55404966 99.97902031 394.1875 101.0625 C393.26016052 101.25177063 392.33282104 101.44104126 391.37738037 101.63604736 C360.15714041 108.00244612 328.77987664 112.95641292 297.1875 117.0625 C296.28698914 117.1802478 295.38647827 117.29799561 294.4586792 117.41931152 C251.61764593 123.00096732 208.51007121 126.52201083 165.375 128.8125 C164.26436188 128.87157532 163.15372375 128.93065063 162.00942993 128.99151611 C155.4939329 129.33220126 148.97760647 129.64129538 142.45922852 129.92147827 C140.30934774 130.01414485 138.15959895 130.10993627 136.01000977 130.20913696 C111.39722712 131.32443582 86.76949048 131.24992127 62.13671875 131.24780273 C57.28609446 131.24772199 52.43556566 131.25459644 47.58496094 131.26831055 C-162.38033162 131.85220976 -162.38033162 131.85220976 -242.8125 90.0625 C-245.73968406 86.60310065 -246.37942951 83.6605281 -246.140625 79.09765625 C-244.96299997 71.79357719 -239.65568946 67.65221557 -234.109375 63.31640625 C-228.68038426 59.60488059 -222.90182603 56.82950275 -216.94726562 54.06738281 C-214.88795378 53.09801781 -212.85738471 52.08524874 -210.828125 51.0546875 C-155.27242335 23.21817862 -91.53131802 6.71656656 -29.8125 1.0625 C-28.81323486 0.96606201 -27.81396973 0.86962402 -26.78442383 0.77026367 C-17.8439396 -0.01760569 -8.96527045 -0.05370853 0 0 Z " fill="#5282A1" transform="translate(422.8125,833.9375)"/>
<path d="M0 0 C-0.88042969 0.845625 -1.76085937 1.69125 -2.66796875 2.5625 C-14.92930641 13.761297 -14.92930641 13.761297 -20.03125 28.9375 C-19.59419352 34.70664554 -17.68957363 38.63680159 -13.26171875 42.52734375 C6.47997743 57.13842963 37.58734316 56.70289923 61 58.625 C63.53144253 58.83916659 66.06285506 59.05368819 68.59423828 59.26855469 C86.38402885 60.76403676 104.16888394 62.11017589 122 63 C123.0101416 63.05639648 124.0202832 63.11279297 125.06103516 63.17089844 C218.98791846 68.35582193 314.3168769 58.82378537 406.515625 41.01953125 C407.28620239 40.87107758 408.05677979 40.7226239 408.85070801 40.56967163 C412.28007566 39.90425724 415.70209924 39.21760934 419.12109375 38.5 C420.83232422 38.15388672 420.83232422 38.15388672 422.578125 37.80078125 C424.02300293 37.49394409 424.02300293 37.49394409 425.49707031 37.1809082 C429.61788127 36.88306184 431.50221278 38.57722182 434.56640625 41.1796875 C435.04142578 41.60773682 435.51644531 42.03578613 436.00585938 42.47680664 C449.8595628 54.92036993 465.98399168 63.36769277 482.84228516 71.00830078 C485.59677467 72.27428136 488.30031119 73.62152921 491 75 C487.64083638 77.23944241 484.43887121 78.10619425 480.58984375 79.1015625 C479.8437384 79.29890991 479.09763306 79.49625732 478.32891846 79.69958496 C475.86682639 80.34814716 473.40243216 80.98732229 470.9375 81.625 C470.08644684 81.84653748 469.23539368 82.06807495 468.35855103 82.29632568 C392.4993096 102.02899503 315.28403881 114.41336937 237 119 C235.87132318 119.06637382 235.87132318 119.06637382 234.71984482 119.13408852 C222.03670375 119.86386638 209.3903624 120.17621155 196.6875 120.203125 C195.75679687 120.20595238 194.82609375 120.20877975 193.8671875 120.21169281 C188.92105853 120.22654797 183.97495758 120.23585784 179.02880859 120.24023438 C175.05247585 120.24457175 171.0763659 120.25829777 167.10009766 120.28125 C145.48681939 120.40328046 123.98574232 120.13664009 102.41796875 118.62890625 C101.53749374 118.56749199 100.65701874 118.50607773 99.74986267 118.44280243 C-25.1481162 109.5184696 -25.1481162 109.5184696 -69 76 C-69.9075 75.38125 -70.815 74.7625 -71.75 74.125 C-76.33367651 69.79597219 -80.60705961 63.98737868 -81.23828125 57.58203125 C-81.52143944 47.0157599 -77.94947444 41.20651773 -70.80078125 33.578125 C-65.39269152 28.59996709 -59.28825973 24.76849608 -53 21 C-51.87078125 20.32195313 -50.7415625 19.64390625 -49.578125 18.9453125 C-37.94847708 12.39376876 -25.45147914 7.73917716 -13 3 C-11.96294922 2.59716797 -10.92589844 2.19433594 -9.85742188 1.77929688 C-8.86806641 1.40353516 -7.87871094 1.02777344 -6.859375 0.640625 C-5.97217773 0.30063477 -5.08498047 -0.03935547 -4.17089844 -0.38964844 C-2 -1 -2 -1 0 0 Z " fill="#5382A1" transform="translate(376,1003)"/>
<path d="M0 0 C0.33 0 0.66 0 1 0 C0.58328047 18.9039134 -9.74527889 34.18710292 -23 47 C-36.04427331 58.6349674 -51.14057797 67.57721406 -66.8984375 75.00244141 C-69.00685867 76.00325564 -71.09638107 77.0378224 -73.1875 78.07421875 C-157.15505486 118.67219544 -261.173802 127.25636384 -418.82824707 138.84570312 C-421.94925136 138.99753122 -425.06982583 139.15658398 -428.19042969 139.31640625 C-500.45227718 142.93573457 -573.57094235 142.84885231 -645.82788086 139.16143799 C-649.11093428 138.99435424 -652.39428638 138.83442087 -655.67773438 138.67529297 C-845.76357664 129.34481728 -845.76357664 129.34481728 -896 98 C-896.33 97.34 -896.66 96.68 -897 96 C-887.99912532 97.02187224 -879.01142144 98.11166068 -870.03515625 99.33203125 C-809.59546262 107.52643673 -748.81394533 112.67879486 -687.85714722 114.89285278 C-685.8821423 114.96691837 -683.90731193 115.04573568 -681.93264771 115.12838745 C-655.83644408 116.21507364 -629.7342396 116.18748801 -603.61938477 116.18530273 C-598.53926989 116.18522215 -593.4592465 116.19207166 -588.37915039 116.20581055 C-539.93448419 116.33464526 -491.54475982 115.14526593 -443.19921875 111.90625 C-442.15561691 111.83692261 -441.11201508 111.76759521 -440.03678894 111.69616699 C-336.64776296 104.71211654 -232.14816387 92.5846697 -3 4 C-2.45472656 3.26394531 -1.90945313 2.52789063 -1.34765625 1.76953125 C-0.68056641 0.89361328 -0.68056641 0.89361328 0 0 Z " fill="#5282A1" transform="translate(1152,1361)"/>
<path d="M0 0 C0.68449219 0.16097168 1.36898438 0.32194336 2.07421875 0.48779297 C31.70467334 7.61471146 58.44920355 25.6401374 74.82519531 51.55004883 C88.91220448 74.72635503 92.12501452 101.60233694 85.9140625 127.76953125 C80.11471605 150.05794929 67.99462562 169.84971189 52.30859375 186.5390625 C50.25781689 188.72516981 48.30879725 190.9610155 46.375 193.25 C42.89338281 197.23935303 39.0445843 200.59546776 35 204 C34.11054687 204.78890625 33.22109375 205.5778125 32.3046875 206.390625 C-17.48013387 250.25668447 -84.02007582 272.86281497 -147 290 C-147 286.05887804 -145.63877819 283.792952 -143 281 C-140.12853936 279.06362597 -137.05818171 277.61634817 -133.9375 276.125 C-113.04578855 265.64415287 -93.21899245 253.27650028 -74 240 C-73.34257813 239.54963379 -72.68515625 239.09926758 -72.0078125 238.63525391 C-62.88305965 232.36679895 -54.30375836 225.50847352 -45.77783203 218.453125 C-44.28760824 217.23507885 -42.76987399 216.05079639 -41.24609375 214.875 C-26.39382346 203.34647721 -12.95401725 189.2653112 -2 174 C-1.608125 173.46358887 -1.21625 172.92717773 -0.8125 172.37451172 C17.30423127 147.53105005 29.11186594 119.75454391 24.78125 88.4921875 C21.84519891 70.21214602 12.93351309 55.78420847 0 43 C-0.71800781 42.27167969 -1.43601562 41.54335938 -2.17578125 40.79296875 C-12.79910876 30.64979164 -26.10333782 24.30681679 -40 20 C-41.093125 19.6596875 -42.18625 19.319375 -43.3125 18.96875 C-65.42404325 13.2282532 -89.15390539 17.61017897 -110.16455078 25.5534668 C-112 26 -112 26 -115 25 C-102.69888144 9.77192719 -87.52532297 4.38604569 -69 0 C-68.29085449 -0.16806152 -67.58170898 -0.33612305 -66.85107422 -0.50927734 C-45.82168566 -5.21662134 -20.89255304 -5.20762399 0 0 Z " fill="#5282A1" transform="translate(1064,823)"/>
<path d="M0 0 C2.97 0 5.94 0 9 0 C11.71970716 5.25184831 14.01095551 10.43067543 16 16 C16.42152344 14.92878906 16.84304688 13.85757812 17.27734375 12.75390625 C17.83059319 11.35671698 18.38398602 9.95958449 18.9375 8.5625 C19.21529297 7.85544922 19.49308594 7.14839844 19.77929688 6.41992188 C21.88671875 1.11328125 21.88671875 1.11328125 23 0 C25.97 0 28.94 0 32 0 C32 9.24 32 18.48 32 28 C30.02 28 28.04 28 26 28 C25.67 22.72 25.34 17.44 25 12 C23.02 17.28 21.04 22.56 19 28 C17.35 28 15.7 28 14 28 C13.65066406 27.15695312 13.30132813 26.31390625 12.94140625 25.4453125 C12.48636719 24.34960938 12.03132813 23.25390625 11.5625 22.125 C11.11003906 21.03445313 10.65757813 19.94390625 10.19140625 18.8203125 C9.50456537 17.19441376 8.78934113 15.57868226 8 14 C7.67 18.62 7.34 23.24 7 28 C4.69 28 2.38 28 0 28 C0 18.76 0 9.52 0 0 Z " fill="#5282A1" transform="translate(1158,1719)"/>
<path d="M0 0 C7.59 0 15.18 0 23 0 C23 1.65 23 3.3 23 5 C20.36 5 17.72 5 15 5 C15 12.59 15 20.18 15 28 C12.69 28 10.38 28 8 28 C8 20.41 8 12.82 8 5 C5.36 5 2.72 5 0 5 C0 3.35 0 1.7 0 0 Z " fill="#5282A0" transform="translate(1132,1719)"/>
</svg>
