<?xml version="1.0" standalone="no"?>
<!DOCTYPE svg PUBLIC "-//W3C//DTD SVG 20010904//EN"
 "http://www.w3.org/TR/2001/REC-SVG-20010904/DTD/svg10.dtd">
<svg version="1.0" xmlns="http://www.w3.org/2000/svg"
 width="520.000000pt" height="318.000000pt" viewBox="0 0 520.000000 318.000000"
 preserveAspectRatio="xMidYMid meet">

<g transform="translate(0.000000,318.000000) scale(0.100000,-0.100000)"
fill="#000000" stroke="none">
<path d="M2310 2829 c0 -7 64 -78 143 -158 79 -80 158 -168 176 -194 137 -201
130 -492 -15 -731 -90 -147 -279 -357 -447 -496 -36 -30 -64 -56 -62 -58 2 -2
38 17 79 42 165 100 528 271 758 357 428 160 1070 336 1456 399 l72 12 -41 58
c-174 249 -421 396 -836 501 -125 31 -656 127 -943 170 -151 22 -320 75 -320
100 0 5 -4 9 -10 9 -5 0 -10 -5 -10 -11z m213 -113 c42 -12 81 -27 86 -32 11
-11 72 -206 67 -212 -2 -2 -20 21 -40 51 -20 30 -74 91 -121 136 -46 44 -81
81 -77 81 4 -1 42 -11 85 -24z m275 -61 c68 -14 132 -25 142 -25 39 0 28 -19
-27 -51 -32 -18 -86 -57 -121 -87 -35 -30 -65 -52 -66 -50 -2 1 -15 41 -31 88
-15 47 -34 97 -41 112 -8 15 -14 29 -14 33 0 9 33 5 158 -20z m232 -97 c18
-82 25 -228 11 -228 -14 0 -264 71 -270 76 -12 11 211 203 236 204 6 0 17 -24
23 -52z m216 18 c174 -33 204 -40 193 -50 -2 -2 -46 -25 -98 -51 -52 -26 -129
-68 -172 -95 l-76 -47 -7 74 c-4 41 -16 102 -26 136 -11 34 -20 63 -20 65 0 5
25 1 206 -32z m254 -65 c0 -50 -123 -328 -142 -322 -4 1 -58 26 -119 55 l-111
53 87 58 c96 63 266 164 278 165 4 0 7 -4 7 -9z m190 -41 c125 -41 280 -102
280 -111 0 -4 -19 -10 -42 -14 -68 -12 -265 -70 -383 -114 -60 -22 -111 -38
-113 -36 -2 1 6 21 17 43 27 52 71 205 71 244 0 30 1 30 38 24 20 -3 80 -19
132 -36z m-792 -172 c51 -16 92 -34 90 -39 -5 -15 -223 -210 -225 -201 -1 4
-3 69 -6 144 l-4 138 26 -6 c14 -4 68 -20 119 -36z m1102 25 c0 -10 -87 -126
-215 -288 l-118 -149 -26 35 c-13 19 -65 74 -113 123 -49 49 -87 90 -86 91 13
10 243 98 368 141 151 51 190 61 190 47z m148 -63 c86 -57 272 -222 272 -241
0 -5 -18 -9 -39 -9 -91 0 -496 -67 -641 -106 -19 -5 -3 16 65 87 94 98 140
161 195 267 17 34 38 62 44 62 7 0 54 -27 104 -60z m-950 -84 c39 -20 73 -40
77 -45 3 -6 -20 -24 -52 -40 -32 -16 -98 -52 -147 -80 -49 -29 -90 -50 -93
-48 -2 2 7 26 21 53 19 40 49 123 72 201 4 15 23 9 122 -41z m-184 -18 c-9
-29 -38 -99 -65 -156 l-50 -103 -34 29 c-18 17 -47 38 -64 48 -17 10 -31 21
-31 24 0 13 235 210 251 210 4 0 1 -24 -7 -52z m447 -145 c77 -56 164 -132
158 -137 -2 -2 -87 -28 -189 -59 -102 -31 -233 -73 -292 -95 -60 -22 -108 -37
-108 -35 0 3 53 60 118 127 64 67 140 154 167 193 56 80 47 79 146 6z m-191
30 c-1 -17 -277 -371 -291 -372 -3 -1 -9 21 -12 49 -3 27 -15 70 -26 95 l-20
45 42 27 c57 36 290 163 300 163 4 0 7 -3 7 -7z m-483 -149 c24 -14 43 -29 41
-34 -3 -7 -185 -150 -192 -150 -4 0 99 209 103 210 2 0 24 -12 48 -26z m126
-136 c49 -105 53 -98 -86 -153 -67 -27 -164 -68 -214 -91 -51 -24 -93 -41 -93
-39 0 2 37 32 83 68 80 63 241 219 259 251 15 26 25 19 51 -36z m-112 14 c-16
-30 -176 -177 -244 -225 -123 -87 -126 -87 -52 1 53 63 98 103 184 163 63 43
116 79 118 79 2 0 -1 -8 -6 -18z"/>
<path d="M3267 382 c6 -4 13 -23 16 -42 l4 -35 1 37 c1 20 8 39 15 41 6 3 -1
6 -18 6 -17 0 -25 -3 -18 -7z"/>
<path d="M3321 348 c1 -39 2 -40 8 -13 l7 30 15 -28 15 -28 14 28 13 28 8 -30
c6 -28 7 -27 8 13 1 50 -11 54 -30 10 l-13 -31 -15 31 c-20 44 -31 40 -30 -10z"/>
</g>
</svg>
