<?xml version="1.0" encoding="UTF-8"?>
<svg version="1.1" xmlns="http://www.w3.org/2000/svg" width="300" height="300">
<path d="M0 0 C4.08632641 1.63453056 7.50002874 3.34958325 11.26953125 5.5625 C11.86243958 5.90966064 12.4553479 6.25682129 13.06622314 6.61450195 C14.98393051 7.73916961 16.89837158 8.86925348 18.8125 10 C20.14444004 10.78387087 21.47638996 11.56772496 22.80834961 12.3515625 C29.87658383 16.51912811 36.9092544 20.73365905 43.84008789 25.12670898 C47.9359462 27.71962779 52.05837139 30.26455986 56.19921875 32.78515625 C56.7626297 33.12829865 57.32604065 33.47144104 57.90652466 33.82498169 C60.89185256 35.6401774 63.88413171 37.44235618 66.88867188 39.22558594 C73.12061446 42.9391202 79.17276303 46.77006239 85.08203125 50.98046875 C96.00110228 58.63275525 105.30793412 64.81510824 119.25 62.8125 C122.62721949 62.20501771 125.96851155 61.51023378 129.31640625 60.7578125 C135.52979398 59.47955458 141.81391259 58.80271175 148.11071777 58.06771851 C150.20262665 57.81815169 152.29122186 57.54998397 154.37988281 57.2746582 C155.66217773 57.10796631 156.94447266 56.94127441 158.265625 56.76953125 C159.39774414 56.62104736 160.52986328 56.47256348 161.69628906 56.31958008 C165.15158643 55.98533649 168.53069472 55.97896017 172 56 C172.23373799 79.70455135 172.41001016 103.40892967 172.51812172 127.11440182 C172.56965731 138.12166331 172.63990074 149.12820825 172.75439453 160.13500977 C172.85415555 169.73006901 172.91860285 179.32460929 172.94088495 188.92017275 C172.9539079 193.99996069 172.98444764 199.07826415 173.05730057 204.15757561 C173.12537199 208.9424566 173.14607879 213.72524748 173.13107681 218.51056671 C173.13381953 220.26297699 173.15360256 222.01545983 173.19205475 223.76745033 C173.46745657 236.96718575 173.46745657 236.96718575 169.85783005 241.96747017 C167.34730364 244.26168356 164.83901648 246.13623654 162 248 C160.46874679 249.2161613 158.94626583 250.44355048 157.4375 251.6875 C156.21160156 252.65429688 156.21160156 252.65429688 154.9609375 253.640625 C151.12569804 256.69667333 147.34442591 259.81587098 143.5625 262.9375 C142.08204129 264.15886633 140.6015727 265.3802207 139.12109375 266.6015625 C138.41452637 267.18454102 137.70795898 267.76751953 136.97998047 268.36816406 C133.5023712 271.23429728 130.01360436 274.08667301 126.5234375 276.9375 C124.8184463 278.33105318 123.11536741 279.72694883 121.4140625 281.125 C119.62520474 282.59385681 117.83083287 284.05602169 116.03125 285.51171875 C113.72876872 287.40177104 111.46932034 289.31945039 109.21875 291.26953125 C107.89609936 292.38833541 106.57318457 293.50682736 105.25 294.625 C104.63608398 295.17067627 104.02216797 295.71635254 103.38964844 296.27856445 C100.02337739 299.0854538 98.77404171 300.02646982 94.23046875 299.87109375 C93.16441406 299.58363281 92.09835938 299.29617188 91 299 C90.030625 298.814375 89.06125 298.62875 88.0625 298.4375 C87.381875 298.293125 86.70125 298.14875 86 298 C86 297.34 86 296.68 86 296 C84.69353264 295.81417862 84.69353264 295.81417862 83.360672 295.62460327 C80.12611092 295.02343855 77.30785789 294.15210163 74.22924805 293.00634766 C72.56172737 292.39033188 72.56172737 292.39033188 70.86051941 291.76187134 C69.67291519 291.31709442 68.48531097 290.8723175 67.26171875 290.4140625 C65.3738103 289.71475506 63.48590138 289.01544886 61.59796619 288.31621361 C58.96061583 287.33787434 56.32511708 286.35459751 53.6895752 285.37139893 C48.46025737 283.42184318 43.22731128 281.4820433 37.99463844 279.54151535 C36.18121955 278.86808821 34.36875717 278.1920871 32.55632019 277.51602173 C27.07484387 275.47731068 21.58925693 273.49831895 16.03135681 271.67840576 C12.69607449 270.56453215 9.40995075 269.32513661 6.12109375 268.08203125 C5.50109497 267.84915405 4.88109619 267.61627686 4.24230957 267.37634277 C1.97335296 266.52355348 -0.29451441 265.66786837 -2.5625 264.8125 C-7.656875 262.894375 -12.75125 260.97625 -18 259 C-18 272.53 -18 286.06 -18 300 C-21.4479635 298.85067883 -21.96767838 298.01470731 -24 295.125 C-25.41896595 293.12218868 -26.74567319 291.25034258 -28.49609375 289.52734375 C-30.33407762 287.66071597 -31.64488985 285.63824006 -33.0625 283.4375 C-34.61527798 281.03128679 -35.97124564 279.02875436 -38 277 C-38.87016588 275.88732887 -39.72189828 274.76017155 -40.5625 273.625 C-42.47860835 271.04015087 -44.40657214 268.46755205 -46.359375 265.91015625 C-46.76470459 265.3776123 -47.17003418 264.84506836 -47.58764648 264.29638672 C-48.77128021 262.74164359 -49.9578535 261.18913973 -51.14453125 259.63671875 C-53 257 -53 257 -54 254 C-54.66 254 -55.32 254 -56 254 C-57.26611328 252.34326172 -57.26611328 252.34326172 -58.6953125 250.0546875 C-62.37887144 244.34282564 -66.52837904 239.07748581 -70.75390625 233.76098633 C-76.02678154 227.08629449 -76.02678154 227.08629449 -78.1953125 223.56640625 C-83.28679639 215.44427719 -89.01556716 213.35170669 -98 211 C-98.99 210.67 -99.98 210.34 -101 210 C-101 209.34 -101 208.68 -101 208 C-101.71567139 207.88213135 -102.43134277 207.7642627 -103.16870117 207.64282227 C-106.11700315 206.97343543 -108.558851 205.98158345 -111.30078125 204.71484375 C-112.27724609 204.26689453 -113.25371094 203.81894531 -114.25976562 203.35742188 C-115.77086914 202.65456055 -115.77086914 202.65456055 -117.3125 201.9375 C-118.33923828 201.46505859 -119.36597656 200.99261719 -120.42382812 200.50585938 C-122.951452 199.34197675 -125.47670072 198.17322145 -128 197 C-128.09267962 185.6126486 -128.1637548 174.22538692 -128.20724869 162.83773518 C-128.2281236 157.54997244 -128.25643978 152.26246774 -128.30175781 146.97485352 C-128.34521856 141.87201081 -128.36913783 136.76941631 -128.37950897 131.66640282 C-128.3868999 129.71952596 -128.40133266 127.77266269 -128.42292023 125.82589149 C-128.45195721 123.09887968 -128.45595588 120.37289348 -128.45410156 117.64575195 C-128.46848267 116.84086334 -128.48286377 116.03597473 -128.49768066 115.20669556 C-128.46004837 110.09211465 -127.49300981 107.68709211 -124 104 C-123.67 103.01 -123.34 102.02 -123 101 C-121.85121715 99.8469781 -120.69829189 98.69777532 -119.52441406 97.5703125 C-116.34901068 94.2993012 -113.65542677 90.6057745 -110.875 87 C-110.25496094 86.2059375 -109.63492188 85.411875 -108.99609375 84.59375 C-105.47522566 80.10716734 -105.47522566 80.10716734 -102.6328125 75.1875 C-97.44183642 68.23308229 -84.9938732 66.7627051 -76.984375 64.4453125 C-75.52281507 64.01752576 -74.06141272 63.58920035 -72.60015869 63.16036987 C-68.76300744 62.03593698 -64.92368278 60.9191111 -61.0838623 59.80383301 C-57.24719275 58.68788974 -53.41278924 57.5642167 -49.578125 56.44140625 C-42.34044709 54.32360462 -35.09926759 52.21806522 -27.85620117 50.11877441 C-24.32015953 49.09368873 -20.78602721 48.0621228 -17.25195312 47.03027344 C-15.33993973 46.47558051 -13.42783858 45.92118993 -11.515625 45.3671875 C-10.25102448 44.99619431 -10.25102448 44.99619431 -8.96087646 44.6177063 C-5.88142606 43.73087534 -3.22223402 43 0 43 C0 28.81 0 14.62 0 0 Z M95.2890625 68.0234375 C93.66871094 68.34828125 93.66871094 68.34828125 92.015625 68.6796875 C90.89671875 68.90914063 89.7778125 69.13859375 88.625 69.375 C87.51382813 69.59671875 86.40265625 69.8184375 85.2578125 70.046875 C79.75663893 71.16020775 74.39386142 72.44192008 69 74 C66.43768281 74.49244111 63.88572683 74.95222704 61.3125 75.375 C52.30281459 76.90892682 43.34952565 78.69036529 34.39501953 80.51611328 C32.75128441 80.84821145 31.10634767 81.17440052 29.46044922 81.49560547 C28.61627441 81.6607666 27.77209961 81.82592773 26.90234375 81.99609375 C25.77880493 82.2135022 25.77880493 82.2135022 24.63256836 82.43530273 C22.4589563 82.90155189 20.29959613 83.43371715 18.14550781 83.9831543 C14.37758883 84.93476156 10.60470508 85.63562404 6.76953125 86.2734375 C-4.71890727 88.23933946 -16.13536604 90.57433713 -27.5612793 92.87109375 C-31.3496487 93.63246601 -35.13864285 94.39066796 -38.92773438 95.1484375 C-41.34378667 95.63262958 -43.75980362 96.11699801 -46.17578125 96.6015625 C-47.30486404 96.82760162 -48.43394684 97.05364075 -49.59724426 97.28652954 C-50.64321274 97.49699921 -51.68918121 97.70746887 -52.7668457 97.92431641 C-53.68375687 98.108461 -54.60066803 98.29260559 -55.54536438 98.48233032 C-57.7080137 98.93842163 -59.85577188 99.46394297 -62 100 C-69.59 101.65 -77.18 103.3 -85 105 C-85 140.64 -85 176.28 -85 213 C-59.08587745 215.30994759 -59.08587745 215.30994759 -33.15869141 217.44213867 C-31.65278586 217.56067216 -30.14689132 217.67934537 -28.64100647 217.79814148 C-24.69051482 218.10937302 -20.73987122 218.41862853 -16.78918123 218.72733092 C-12.60443989 219.05460524 -8.41983082 219.38356368 -4.23519897 219.7122345 C2.74773114 220.26042504 9.73076587 220.80726649 16.71386719 221.35327148 C24.77510031 221.98359506 32.83614521 222.6162856 40.89710176 223.2501356 C48.71814125 223.86505563 56.53931696 224.47822636 64.36055374 225.09063148 C67.66752379 225.349606 70.97444318 225.60921401 74.28132248 225.86934471 C78.15081328 226.17366241 82.02042027 226.47645705 85.89012337 226.77806282 C87.30756501 226.88878845 88.72496529 227.00004493 90.14232063 227.11186981 C92.07453414 227.26422835 94.00691347 227.41447971 95.93930054 227.56462097 C97.01972815 227.64921664 98.10015575 227.73381231 99.21332359 227.82097149 C101.47168032 227.96605839 103.73698756 228 106 228 C106 174.87 106 121.74 106 67 C102.06534324 67 99.07683534 67.26038344 95.2890625 68.0234375 Z " fill="#3B82C4" transform="translate(128,0)"/>
<path d="M0 0 C4.08632641 1.63453056 7.50002874 3.34958325 11.26953125 5.5625 C11.86243958 5.90966064 12.4553479 6.25682129 13.06622314 6.61450195 C14.98393051 7.73916961 16.89837158 8.86925348 18.8125 10 C20.14444004 10.78387087 21.47638996 11.56772496 22.80834961 12.3515625 C29.87658383 16.51912811 36.9092544 20.73365905 43.84008789 25.12670898 C51.439696 29.93770714 59.14205892 34.58137173 66.84033203 39.23217773 C68.05638133 39.9671756 69.27236383 40.70228399 70.48828125 41.4375 C71.09861206 41.80653946 71.70894287 42.17557892 72.33776855 42.55580139 C76.20474491 44.89880214 80.05480554 47.26741269 83.89407349 49.65553284 C86.45501251 51.24775706 89.02085326 52.83198606 91.58703613 54.41574097 C92.81256761 55.17522042 94.03567673 55.93862385 95.25622559 56.70608521 C96.9549294 57.7737055 98.66283425 58.82664334 100.37109375 59.87890625 C101.33974365 60.4829126 102.30839355 61.08691895 103.30639648 61.70922852 C106.15103685 63.07237667 107.89104561 63.28231101 111 63 C110.6757435 63.54672237 110.35148701 64.09344475 110.01740456 64.65673447 C108.80932475 67.43915937 108.73880857 69.46223028 108.7215271 72.49224854 C108.71036362 73.60841553 108.69920013 74.72458252 108.68769836 75.87457275 C108.68445808 77.70444733 108.68445808 77.70444733 108.68115234 79.57128906 C108.67110672 80.85934448 108.6610611 82.1473999 108.65071106 83.4744873 C108.62341448 87.00305089 108.60826272 90.53157456 108.59528303 94.06021595 C108.57965097 97.74915456 108.55286099 101.43801168 108.5272522 105.12689209 C108.48046572 112.11075698 108.443721 119.0946372 108.41057932 126.07857871 C108.372357 134.03020292 108.32294713 141.98174528 108.27259517 149.9333005 C108.16927727 166.28880821 108.08001643 182.64436134 108 199 C107.67 199 107.34 199 107 199 C106.11007834 182.91809207 105.86533531 166.89332187 105.90234375 150.7890625 C105.90421476 148.35427886 105.90563542 145.91949484 105.90663147 143.48471069 C105.91040297 137.15564894 105.92018568 130.82661107 105.93133545 124.49755859 C105.9416667 118.00749026 105.94615388 111.51741798 105.95117188 105.02734375 C105.9618142 92.35155246 105.97862463 79.67577752 106 67 C105.30438965 67.15146484 104.6087793 67.30292969 103.89208984 67.45898438 C100.72106812 68.14569573 97.54809306 68.82292709 94.375 69.5 C92.73337891 69.85771484 92.73337891 69.85771484 91.05859375 70.22265625 C89.99511719 70.44824219 88.93164062 70.67382812 87.8359375 70.90625 C86.86188965 71.11572266 85.8878418 71.32519531 84.88427734 71.54101562 C81.87581547 72.01976189 79.04112122 72.07888771 76 72 C75.67 72.66 75.34 73.32 75 74 C72.33203125 74.52734375 72.33203125 74.52734375 68.8125 74.9375 C62.64578866 75.73642617 56.64947269 76.86261718 50.58203125 78.2109375 C43.45127181 79.78172638 36.27998632 81.16601079 29.11328125 82.5625 C25.20266853 83.32905196 21.3496153 84.15450842 17.5 85.1875 C14 86 14 86 12 85 C11.67 85.66 11.34 86.32 11 87 C8.92180248 87.25849501 6.84138074 87.50407755 4.7557373 87.69332886 C-0.46814488 88.27466653 -5.59060402 89.44239338 -10.734375 90.50390625 C-13.18879672 91.00197958 -15.64322396 91.50002565 -18.09765625 91.99804688 C-21.93827393 92.78238449 -25.77855349 93.56835089 -29.61865234 94.35522461 C-33.34392129 95.11713589 -37.07033387 95.873246 -40.796875 96.62890625 C-42.52040192 96.98511803 -42.52040192 96.98511803 -44.27874756 97.348526 C-45.35046204 97.56552658 -46.42217651 97.78252716 -47.52636719 98.00610352 C-48.46518738 98.19850113 -49.40400757 98.39089874 -50.37127686 98.58912659 C-52.96170407 98.99401429 -55.38303949 99.07533338 -58 99 C-58.33 99.66 -58.66 100.32 -59 101 C-61.484375 101.5625 -61.484375 101.5625 -64.75 102 C-66.32007812 102.2165625 -66.32007812 102.2165625 -67.921875 102.4375 C-68.81422852 102.55738281 -68.81422852 102.55738281 -69.72460938 102.6796875 C-74.82449532 103.39761136 -79.91100879 104.20910435 -85 105 C-84.99777939 105.6267009 -84.99555878 106.25340179 -84.99327087 106.89909363 C-84.9011336 134.22787175 -84.83595103 161.55129015 -85.4375 188.875 C-85.45714813 189.83143402 -85.47679626 190.78786804 -85.49703979 191.77328491 C-85.55352549 194.45059055 -85.61695179 197.12761747 -85.68359375 199.8046875 C-85.70867004 200.9741114 -85.70867004 200.9741114 -85.73425293 202.16716003 C-85.8289329 205.56466471 -85.9504967 208.74851392 -87 212 C-92.21979128 212.1799928 -96.07262981 211.97094808 -101 210 C-101 209.34 -101 208.68 -101 208 C-101.71567139 207.88213135 -102.43134277 207.7642627 -103.16870117 207.64282227 C-106.11700315 206.97343543 -108.558851 205.98158345 -111.30078125 204.71484375 C-112.27724609 204.26689453 -113.25371094 203.81894531 -114.25976562 203.35742188 C-115.77086914 202.65456055 -115.77086914 202.65456055 -117.3125 201.9375 C-118.33923828 201.46505859 -119.36597656 200.99261719 -120.42382812 200.50585938 C-122.951452 199.34197675 -125.47670072 198.17322145 -128 197 C-128.09267962 185.6126486 -128.1637548 174.22538692 -128.20724869 162.83773518 C-128.2281236 157.54997244 -128.25643978 152.26246774 -128.30175781 146.97485352 C-128.34521856 141.87201081 -128.36913783 136.76941631 -128.37950897 131.66640282 C-128.3868999 129.71952596 -128.40133266 127.77266269 -128.42292023 125.82589149 C-128.45195721 123.09887968 -128.45595588 120.37289348 -128.45410156 117.64575195 C-128.46848267 116.84086334 -128.48286377 116.03597473 -128.49768066 115.20669556 C-128.46004837 110.09211465 -127.49300981 107.68709211 -124 104 C-123.67 103.01 -123.34 102.02 -123 101 C-121.85121715 99.8469781 -120.69829189 98.69777532 -119.52441406 97.5703125 C-116.34901068 94.2993012 -113.65542677 90.6057745 -110.875 87 C-110.25496094 86.2059375 -109.63492188 85.411875 -108.99609375 84.59375 C-105.47522566 80.10716734 -105.47522566 80.10716734 -102.6328125 75.1875 C-97.44183642 68.23308229 -84.9938732 66.7627051 -76.984375 64.4453125 C-75.52281507 64.01752576 -74.06141272 63.58920035 -72.60015869 63.16036987 C-68.76300744 62.03593698 -64.92368278 60.9191111 -61.0838623 59.80383301 C-57.24719275 58.68788974 -53.41278924 57.5642167 -49.578125 56.44140625 C-42.34044709 54.32360462 -35.09926759 52.21806522 -27.85620117 50.11877441 C-24.32015953 49.09368873 -20.78602721 48.0621228 -17.25195312 47.03027344 C-15.33993973 46.47558051 -13.42783858 45.92118993 -11.515625 45.3671875 C-10.25102448 44.99619431 -10.25102448 44.99619431 -8.96087646 44.6177063 C-5.88142606 43.73087534 -3.22223402 43 0 43 C0 28.81 0 14.62 0 0 Z " fill="#5592CE" transform="translate(128,0)"/>
<path d="M0 0 C0.02345918 13.36385916 0.04108232 26.7277132 0.05181217 40.09158897 C0.05696916 46.30097571 0.0639312 52.51034809 0.07543945 58.71972656 C0.12500847 86.16340609 0.11255858 113.57508506 -1 141 C-1.33 141 -1.66 141 -2 141 C-2 95.13 -2 49.26 -2 2 C-3.32 1.67 -4.64 1.34 -6 1 C-6 1.66 -6 2.32 -6 3 C-7.98 3 -9.96 3 -12 3 C-12 2.34 -12 1.68 -12 1 C-7.94150823 0.01612321 -4.16468745 -0.03924323 0 0 Z " fill="#5293D3" transform="translate(300,56)"/>
<path d="M0 0 C1.71986515 3.43973031 0.99404059 7.38871118 0.87890625 11.1640625 C0.85529526 12.07127045 0.83168427 12.97847839 0.80735779 13.91317749 C0.73064479 16.81727451 0.64665335 19.72110997 0.5625 22.625 C0.50928696 24.59113294 0.45654651 26.55727873 0.40429688 28.5234375 C0.27501931 33.34912468 0.13921274 38.17458962 0 43 C-3.4479635 41.85067883 -3.96767838 41.01470731 -6 38.125 C-7.85223044 35.51065391 -9.72525313 33.24968079 -12 31 C-15 26.44444444 -15 26.44444444 -15 24 C-12 25 -12 25 -4 36 C-3.67 24.45 -3.34 12.9 -3 1 C-2.01 0.67 -1.02 0.34 0 0 Z " fill="#2E7AC0" transform="translate(110,257)"/>
<path d="M0 0 C5.97609212 2.39043685 11.33538388 5.55739933 16.85791016 8.82202148 C18.75297772 9.93925551 20.65552889 11.04294213 22.55859375 12.14648438 C23.76350326 12.85595215 24.96794727 13.56621122 26.171875 14.27734375 C27.2659668 14.91921631 28.36005859 15.56108887 29.48730469 16.22241211 C32 18 32 18 33 21 C29.37930528 19.64574082 26.15378068 18.01734129 22.83984375 16.03125 C21.88142578 15.46019531 20.92300781 14.88914062 19.93554688 14.30078125 C18.94619141 13.70652344 17.95683594 13.11226562 16.9375 12.5 C14.96816308 11.32172054 12.99813774 10.14459073 11.02734375 8.96875 C10.15843506 8.44732422 9.28952637 7.92589844 8.39428711 7.38867188 C6.30762096 6.17841827 4.15757075 5.07878537 2 4 C2 16.87 2 29.74 2 43 C1.34 43 0.68 43 0 43 C0 28.81 0 14.62 0 0 Z M-2 43 C-1.01 43.33 -0.02 43.66 1 44 C0.01 44.33 -0.98 44.66 -2 45 C-2 44.34 -2 43.68 -2 43 Z " fill="#649ED9" transform="translate(128,0)"/>
<path d="M0 0 C3.7843721 0.57801649 6.48757109 1.64334185 9.7578125 3.6171875 C10.63050781 4.14183594 11.50320312 4.66648437 12.40234375 5.20703125 C13.30082031 5.75746094 14.19929687 6.30789062 15.125 6.875 C16.48431641 7.68904297 16.48431641 7.68904297 17.87109375 8.51953125 C25.18175044 12.94924768 25.18175044 12.94924768 28 16 C22.30403396 15.54610271 18.6484812 13.24134244 14 10.1875 C13.31421875 9.74857422 12.6284375 9.30964844 11.921875 8.85742188 C9.93933598 7.58428374 7.96900789 6.29393394 6 5 C5.39414063 4.61021973 4.78828125 4.22043945 4.1640625 3.81884766 C2.75829045 2.90600331 1.37617961 1.95687488 0 1 C0 0.67 0 0.34 0 0 Z " fill="#609BD6" transform="translate(163,22)"/>
<path d="M0 0 C0.99 0.33 1.98 0.66 3 1 C-0.29794972 4.04114216 -3.63433873 7.03398091 -7 10 C-7.72574219 10.6496875 -8.45148438 11.299375 -9.19921875 11.96875 C-12.71403095 14.89660928 -14.15947471 16 -18.875 16 C-22 15 -22 15 -24 13 C-21 12 -21 12 -18.0625 12.6875 C-17.051875 12.790625 -16.04125 12.89375 -15 13 C-12.77068176 11.18739868 -12.77068176 11.18739868 -11 9 C-10.01 8.67 -9.02 8.34 -8 8 C-7.505 7.34 -7.01 6.68 -6.5 6 C-5 4 -5 4 -2 3 C-1.34 2.01 -0.68 1.02 0 0 Z " fill="#2E7AC0" transform="translate(241,284)"/>
<path d="M0 0 C5.1992169 0.51274328 8.99816623 3.15299853 13.3125 5.875 C14.05306641 6.32230469 14.79363281 6.76960938 15.55664062 7.23046875 C16.25595703 7.66746094 16.95527344 8.10445312 17.67578125 8.5546875 C18.6335144 9.14999268 18.6335144 9.14999268 19.6105957 9.75732422 C20.06909912 10.16740723 20.52760254 10.57749023 21 11 C21 11.99 21 12.98 21 14 C17.68252156 12.05000798 14.37191918 10.08863365 11.0625 8.125 C9.64420898 7.29162109 9.64420898 7.29162109 8.19726562 6.44140625 C6.84858398 5.63896484 6.84858398 5.63896484 5.47265625 4.8203125 C4.64000244 4.32805176 3.80734863 3.83579102 2.94946289 3.32861328 C1 2 1 2 0 0 Z " fill="#609BD7" transform="translate(191,39)"/>
<path d="M0 0 C-0.33 0.66 -0.66 1.32 -1 2 C-4.16015625 2.4140625 -4.16015625 2.4140625 -8.0625 2.625 C-9.35285156 2.69976562 -10.64320313 2.77453125 -11.97265625 2.8515625 C-12.97167969 2.90054688 -13.97070312 2.94953125 -15 3 C-15 2.34 -15 1.68 -15 1 C-13.0641649 0.63684334 -11.12624752 0.28477269 -9.1875 -0.0625 C-8.10855469 -0.25972656 -7.02960938 -0.45695312 -5.91796875 -0.66015625 C-3 -1 -3 -1 0 0 Z " fill="#5C98D5" transform="translate(287,58)"/>
<path d="M0 0 C0 0.66 0 1.32 0 2 C-0.969375 1.979375 -1.93875 1.95875 -2.9375 1.9375 C-5.87465895 1.64381501 -5.87465895 1.64381501 -7 3 C-9.33297433 3.04092937 -11.66705225 3.04241723 -14 3 C-14 2.34 -14 1.68 -14 1 C-9.32798795 -0.20568053 -4.78503708 -0.09382426 0 0 Z " fill="#5D99D6" transform="translate(262,61)"/>
<path d="M0 0 C1.98 0.99 1.98 0.99 4 2 C4 2.99 4 3.98 4 5 C4.99 5.33 5.98 5.66 7 6 C7.99 7.485 7.99 7.485 9 9 C8.67 9.99 8.34 10.98 8 12 C6.66081194 10.37982158 5.3288031 8.75370657 4 7.125 C3.2575 6.22007812 2.515 5.31515625 1.75 4.3828125 C0 2 0 2 0 0 Z " fill="#2E7BC1" transform="translate(81,263)"/>
<path d="M0 0 C0 0.66 0 1.32 0 2 C-1.98 2.33 -3.96 2.66 -6 3 C-6.33 2.34 -6.66 1.68 -7 1 C-4 0 -4 0 0 0 Z M-10 2 C-9.01 2 -8.02 2 -7 2 C-7 2.66 -7 3.32 -7 4 C-9.5 5.625 -9.5 5.625 -12 7 C-11.34 5.35 -10.68 3.7 -10 2 Z " fill="#5D99D6" transform="translate(40,69)"/>
<path d="M0 0 C4.5076467 0.53031138 7.41954788 2.25221116 11 5 C11 5.66 11 6.32 11 7 C6.89188572 5.55007731 3.53144334 3.54592427 0 1 C0 0.67 0 0.34 0 0 Z " fill="#609CD8" transform="translate(214,53)"/>
<path d="M0 0 C2.97 0.99 5.94 1.98 9 3 C9 3.66 9 4.32 9 5 C5.87709365 4.51421457 3.00419641 4.0013988 0 3 C0 2.01 0 1.02 0 0 Z " fill="#3A83C5" transform="translate(27,207)"/>
<path d="M0 0 C1.65 0.33 3.3 0.66 5 1 C4.34 2.32 3.68 3.64 3 5 C0.69 5 -1.62 5 -4 5 C-2 4 0 3 2 2 C1.34 1.34 0.68 0.68 0 0 Z " fill="#609CD9" transform="translate(228,62)"/>
<path d="M0 0 C-6.75 3 -6.75 3 -9 3 C-9 2.34 -9 1.68 -9 1 C-5.57367167 -0.61798838 -3.61944899 -1.34053666 0 0 Z " fill="#609BD7" transform="translate(115,48)"/>
<path d="M0 0 C3.4375 0.8125 3.4375 0.8125 7 2 C7.33 2.99 7.66 3.98 8 5 C2.25 3.125 2.25 3.125 0 2 C0 1.34 0 0.68 0 0 Z " fill="#3D85C8" transform="translate(2,196)"/>
</svg>
