<?xml version="1.0" encoding="UTF-8"?>
<svg version="1.1" xmlns="http://www.w3.org/2000/svg" width="3000" height="2000">
<path d="M0 0 C0.74636719 0.35803711 1.49273438 0.71607422 2.26171875 1.08496094 C6.88542573 3.30789698 11.45171634 5.62707841 16 8 C16.71945801 8.36963867 17.43891602 8.73927734 18.18017578 9.12011719 C40.12696059 20.46045796 60.75231724 34.54411629 80 50 C80.98355469 50.78375 81.96710937 51.5675 82.98046875 52.375 C85.67851254 54.55523741 88.34027555 56.77318599 91 59 C92.01433105 59.84393311 93.02866211 60.68786621 94.07373047 61.55737305 C102.31749233 68.47898808 110.06446778 75.77927631 117.63452148 83.42871094 C119.45559087 85.26827459 121.28477504 87.09947141 123.11523438 88.9296875 C128.95104389 94.78257868 134.69401587 100.65537924 140 107 C140.53713623 107.63035156 141.07427246 108.26070312 141.62768555 108.91015625 C150.65518178 119.5441621 159.03887598 130.548863 167 142 C167.74564209 143.06806885 167.74564209 143.06806885 168.50634766 144.15771484 C203.74167594 194.92677269 227.41289022 253.29679757 237.8125 314.1875 C237.99530518 315.25162109 238.17811035 316.31574219 238.36645508 317.41210938 C242.07015141 340.68563715 243.5262759 363.89099472 243.375 387.4375 C243.36851944 389.36616913 243.36851944 389.36616913 243.36190796 391.33380127 C243.28826433 410.05961884 242.86334038 428.46510889 240 447 C239.74259033 448.75256104 239.74259033 448.75256104 239.47998047 450.54052734 C233.57966835 490.0499453 222.51482591 528.60137351 206 565 C205.54689453 566.00498535 205.09378906 567.0099707 204.62695312 568.04541016 C189.18985345 601.98479494 169.01869634 633.49296141 145 662 C144.3517627 662.77561279 144.3517627 662.77561279 143.69042969 663.56689453 C131.14852546 678.55265817 117.93439937 693.47416871 103.07421875 706.203125 C100.79842282 708.1746243 98.59077333 710.21134395 96.375 712.25 C90.17439706 717.83621393 83.62170457 722.92805608 77 728 C76.35724121 728.49435547 75.71448242 728.98871094 75.05224609 729.49804688 C15.85691263 774.9137705 -54.87859026 804.58775749 -129 814 C-130.16080078 814.14953125 -131.32160156 814.2990625 -132.51757812 814.453125 C-168.66065008 818.89678833 -205.90944549 818.82581176 -242 814 C-243.24313965 813.83902832 -244.4862793 813.67805664 -245.76708984 813.51220703 C-324.89621178 802.94744931 -399.98327681 769.39618871 -461 718 C-461.51175781 717.57315918 -462.02351563 717.14631836 -462.55078125 716.70654297 C-508.29313491 678.51058596 -546.2138832 630.81301348 -572.03027344 577.00439453 C-573.0344131 574.92886919 -574.0664762 572.86884087 -575.1015625 570.80859375 C-594.48193708 531.7238303 -605.69616866 489.01302767 -612 446 C-612.16661133 444.86755859 -612.33322266 443.73511719 -612.50488281 442.56835938 C-617.60088433 405.87292817 -617.29086734 366.63861107 -612 330 C-611.82839355 328.77635742 -611.65678711 327.55271484 -611.47998047 326.29199219 C-605.75492108 286.47750409 -594.65966967 247.63879412 -578 211 C-577.53625977 209.9790625 -577.07251953 208.958125 -576.59472656 207.90625 C-566.99603618 186.97764251 -555.90425494 167.06781767 -543 148 C-542.2889209 146.9488501 -542.2889209 146.9488501 -541.56347656 145.87646484 C-534.67043544 135.75792251 -527.27534778 126.16124853 -519.44726562 116.75146484 C-517.45374408 114.33892713 -515.51398929 111.88408935 -513.5625 109.4375 C-504.74065597 98.70133177 -494.92231337 88.83741151 -485.125 79 C-484.3407666 78.21109375 -483.5565332 77.4221875 -482.74853516 76.609375 C-477.99368325 71.86762741 -473.10324269 67.36282605 -468 63 C-467.03578125 62.154375 -466.0715625 61.30875 -465.078125 60.4375 C-436.76851708 36.03805892 -405.24920315 16.83457054 -372 0 C-371.27167969 -0.3722168 -370.54335937 -0.74443359 -369.79296875 -1.12792969 C-293.42864321 -39.86614337 -201.48674867 -49.69322816 0 0 Z M-223.6328125 121.921875 C-224.29313477 122.13732468 -224.95345703 122.35277435 -225.63378906 122.57475281 C-227.80167568 123.28797904 -229.96366504 124.01717376 -232.125 124.75 C-232.8661908 124.99920197 -233.60738159 125.24840393 -234.37103271 125.50515747 C-286.34189516 143.04793168 -331.24084741 172.78801453 -372 209 C-372.70769531 209.62648438 -373.41539062 210.25296875 -374.14453125 210.8984375 C-396.23028688 230.58030644 -396.23028688 230.58030644 -416.39453125 252.17578125 C-418.18310628 254.20805506 -420.07118753 256.10057895 -422 258 C-425.2177599 261.17452704 -428.22437296 264.46196715 -431.16796875 267.890625 C-433.15311587 270.17629546 -435.2003983 272.39701378 -437.25 274.625 C-442.34211567 280.27041856 -446.99669992 286.21987845 -451.63574219 292.23730469 C-452.93727063 293.91895024 -454.25147665 295.58972374 -455.5703125 297.2578125 C-488.92245664 339.643913 -512.83644631 392.27232723 -513.25 446.8125 C-513.25942627 447.76261963 -513.26885254 448.71273926 -513.27856445 449.69165039 C-513.27429443 450.58360107 -513.27002441 451.47555176 -513.265625 452.39453125 C-513.26336914 453.18706299 -513.26111328 453.97959473 -513.25878906 454.79614258 C-512.97193488 457.23900361 -512.21772422 458.87986595 -511 461 C-510.68474365 460.36835937 -510.3694873 459.73671875 -510.04467773 459.0859375 C-498.52052555 436.13272031 -485.4607786 414.5350589 -470 394 C-469.55317871 393.40155273 -469.10635742 392.80310547 -468.64599609 392.18652344 C-463.23268897 384.94829893 -457.53292582 377.98498667 -451.65234375 371.125 C-449.20236332 368.25948454 -446.84960455 365.32352335 -444.5 362.375 C-440.49152746 357.43983757 -436.10467162 353.00368101 -431.56640625 348.56640625 C-429.3649168 346.3649168 -427.32144967 344.12504528 -425.3125 341.75 C-421.8678333 337.73663832 -418.04865705 334.39005702 -414 331 C-413.1028125 330.21496094 -412.205625 329.42992187 -411.28125 328.62109375 C-396.90104182 316.22762486 -380.43884651 305.41767045 -360.90625 305.73828125 C-356.77122368 306.11065593 -353.76298412 307.25290023 -350 309 C-349.21625 309.309375 -348.4325 309.61875 -347.625 309.9375 C-345.4196508 311.37945909 -344.97180996 312.53808143 -344 315 C-343.49352118 316.17891343 -342.98704235 317.35782686 -342.46521568 318.57246494 C-340.75097446 323.17962434 -340.57938275 327.33933285 -340.61904907 332.21556091 C-340.6143691 333.11034419 -340.60968913 334.00512746 -340.60486734 334.92702538 C-340.59295724 337.90780248 -340.60235904 340.88811644 -340.61181641 343.86889648 C-340.60774891 346.01308459 -340.60240603 348.15727059 -340.59588623 350.30145264 C-340.58222726 356.11343374 -340.58750573 361.9252548 -340.59702349 367.73723865 C-340.60462836 373.8255676 -340.59757208 379.91388302 -340.59286499 386.00221252 C-340.58740945 396.22684179 -340.59459338 406.45140601 -340.60888672 416.67602539 C-340.62520843 428.4878325 -340.61992732 440.2994842 -340.6034075 452.11128753 C-340.58978173 462.26098821 -340.58787846 472.41064218 -340.59572351 482.56034905 C-340.60039456 488.61860676 -340.60104052 494.67679149 -340.59111404 500.73504448 C-340.582431 506.43225735 -340.58849093 512.12927044 -340.60579681 517.82646179 C-340.60975467 519.91417166 -340.60863966 522.00189842 -340.60200882 524.08960152 C-340.59377545 526.94577779 -340.60413666 529.80131929 -340.61904907 532.65745544 C-340.61235691 533.47790059 -340.60566474 534.29834574 -340.59876978 535.14365286 C-340.66819931 542.02914412 -342.04538612 548.72698858 -346.1875 554.375 C-353.16995239 560.89195556 -360.87813072 560.38529077 -369.8984375 560.171875 C-374.3065097 560.0146598 -378.63369887 559.63509835 -383 559 C-380.12065339 564.50463322 -376.78657077 568.77368517 -372.5 573.25 C-371.57078735 574.22888184 -371.57078735 574.22888184 -370.62280273 575.22753906 C-325.38255653 622.44179985 -259.78085798 644.65991652 -196.6875 655.4375 C-195.73407715 655.6015332 -194.7806543 655.76556641 -193.79833984 655.93457031 C-183.59726895 657.99045736 -183.59726895 657.99045736 -174.1796875 655.09375 C-173.03886719 653.80984375 -173.03886719 653.80984375 -171.875 652.5 C-171.03839844 651.58347656 -170.20179688 650.66695312 -169.33984375 649.72265625 C-168.56769531 648.82417969 -167.79554688 647.92570312 -167 647 C-166.38253906 646.29746094 -165.76507812 645.59492187 -165.12890625 644.87109375 C-164.00450946 643.58569788 -162.88724567 642.29402611 -161.77734375 640.99609375 C-159.04900715 637.93196187 -156.10332092 635.09518168 -153.18359375 632.21484375 C-151.22025329 630.22340539 -149.37920331 628.18697422 -147.5625 626.0625 C-144.84380752 622.8896408 -141.97248325 619.93661618 -139 617 C-135.4412371 613.48411376 -132.10526991 609.88045904 -128.859375 606.078125 C-125.80527851 602.66472304 -122.51251391 599.49356946 -119.234375 596.296875 C-117.28200692 594.28989522 -115.6126187 592.2827979 -114 590 C-109.85586014 591.70042103 -106.75616765 594.64149405 -103.4375 597.5625 C-102.17664893 598.65855103 -100.91492167 599.75359489 -99.65234375 600.84765625 C-99.03085449 601.38664551 -98.40936523 601.92563477 -97.76904297 602.48095703 C-95.38119681 604.53135433 -92.94585215 606.51933221 -90.5 608.5 C-85.10712303 612.88072411 -79.84065576 617.39885912 -74.57421875 621.9296875 C-71.04143663 624.9682863 -67.49339164 627.98849235 -63.9375 631 C-63.41365723 631.44456543 -62.88981445 631.88913086 -62.35009766 632.34716797 C-59.2735123 634.95027947 -56.15820215 637.49661775 -53 640 C-47.56836348 637.97798214 -43.10520837 634.96467972 -38.3125 631.75 C-37.38783936 631.1310083 -36.46317871 630.5120166 -35.51049805 629.87426758 C-23.53268315 621.7630401 -11.92335268 613.03768727 -1.3359375 603.16015625 C0.58562302 601.38319477 2.53963962 599.68143805 4.52734375 597.98046875 C9.68563648 593.47895864 14.52484372 588.66121227 19.36303711 583.82226562 C20.92608734 582.26139673 22.49697365 580.70872112 24.06835938 579.15625 C29.70834899 573.54747947 34.95573928 567.81203475 39.91674805 561.57983398 C41.91201839 559.10895367 43.98480886 556.74733324 46.1171875 554.39453125 C50.05176079 550.01165389 53.61847826 545.41676246 57.125 540.6875 C57.76606689 539.82576172 58.40713379 538.96402344 59.06762695 538.07617188 C74.7062663 516.95106445 88.55632466 495.15414626 101 472 C101.60714844 470.88367188 102.21429687 469.76734375 102.83984375 468.6171875 C103.22269531 467.75351562 103.60554688 466.88984375 104 466 C103.67 465.34 103.34 464.68 103 464 C102.48203857 464.52843506 101.96407715 465.05687012 101.43041992 465.60131836 C82.81796539 484.540126 82.81796539 484.540126 73 492 C72.00226562 492.80308594 71.00453125 493.60617187 69.9765625 494.43359375 C51.52572298 509.20894473 28.49334254 523.5279826 4 521 C-2.61599687 519.47701062 -7.74963587 517.49654419 -12 512 C-12.54094614 508.94931535 -12.7430039 506.43695931 -12.75 503.375 C-12.77255859 502.41271484 -12.79511719 501.45042969 -12.81835938 500.45898438 C-12.86868922 498.21862618 -12.90823682 495.97801071 -12.93945312 493.73730469 C-13.00281716 489.8261084 -13.11404663 485.9175384 -13.234375 482.0078125 C-15.15930307 416.71824446 -15.96497348 351.17921797 -14.625 285.875 C-14.60971252 285.03167114 -14.59442505 284.18834229 -14.57867432 283.31945801 C-13.9298828 249.32750736 -13.9298828 249.32750736 -6.625 239.4375 C-5.8220752 238.26356689 -5.8220752 238.26356689 -5.00292969 237.06591797 C-3.36559895 234.68761595 -1.68470417 232.34487196 0 230 C0.96996984 228.58986232 1.9362543 227.17718096 2.8984375 225.76171875 C18.84040317 202.5021744 36.71508755 180.40862227 54.71875 158.71875 C55.5128125 157.7596875 56.306875 156.800625 57.125 155.8125 C58.14980469 154.58466797 58.14980469 154.58466797 59.1953125 153.33203125 C61.01285971 150.98338259 62.52675994 148.57588247 64 146 C20.17635903 150.25115559 -25.73686392 174.57097282 -61 200 C-62.05703125 200.76054688 -63.1140625 201.52109375 -64.203125 202.3046875 C-78.76400393 213.01570054 -92.3638496 225.08915068 -105 238 C-108.0469077 236.85740961 -110.8976997 235.5360632 -113.765625 234.01171875 C-117.98279798 231.88040616 -122.1385056 230.76075101 -126.75 229.8125 C-127.53568359 229.64524414 -128.32136719 229.47798828 -129.13085938 229.30566406 C-138.73793079 227.33468012 -148.20852434 226.80503699 -158 227 C-157.360625 227.639375 -156.72125 228.27875 -156.0625 228.9375 C-155.60617187 229.40027344 -155.14984375 229.86304688 -154.6796875 230.33984375 C-153.45994012 231.54540802 -152.21091713 232.72157578 -150.9453125 233.87890625 C-141.54066724 242.71406607 -135.04944457 253.76581235 -131 266 C-130.75323611 266.71441852 -130.50647223 267.42883703 -130.25223064 268.16490459 C-127.0909906 278.72517865 -127.54005824 289.45051901 -127.5324707 300.36450195 C-127.52020458 302.62090197 -127.5067499 304.87729579 -127.49220276 307.13368225 C-127.45730743 313.23242764 -127.44192054 319.33106498 -127.43236566 325.42989755 C-127.42577387 329.24255142 -127.41542351 333.055177 -127.40386009 336.86781883 C-127.37234359 347.44111188 -127.34541866 358.01438101 -127.33910847 368.58771992 C-127.33870133 369.26208812 -127.3382942 369.93645633 -127.33787472 370.63125993 C-127.33706708 371.99805367 -127.33626136 373.36484741 -127.33545754 374.73164115 C-127.33505196 375.41002623 -127.33464638 376.08841131 -127.33422852 376.78735352 C-127.33382654 377.46657272 -127.33342456 378.14579193 -127.3330104 378.84559353 C-127.32550678 389.87221664 -127.28094542 400.89835335 -127.2203711 411.92480037 C-127.15856402 423.26718926 -127.12744825 434.6092553 -127.12528104 445.95184487 C-127.12343953 452.31203561 -127.10876433 458.67157466 -127.06246376 465.03161049 C-127.01988173 471.00658101 -127.01539729 476.98037595 -127.04025841 482.9554348 C-127.04284811 485.14722343 -127.03176095 487.33907739 -127.00598145 489.53071594 C-126.97288301 492.52430301 -126.98916799 495.51373621 -127.01777649 498.50727844 C-126.99652012 499.37362122 -126.97526374 500.239964 -126.95336324 501.1325596 C-127.03541099 504.86017995 -127.26256635 507.11758031 -129.70046079 510.03478658 C-131.72754318 511.83818069 -133.78223161 513.43897501 -136 515 C-136.72835833 515.53347481 -137.45671667 516.06694961 -138.20714647 516.61659032 C-140.27212025 518.11121018 -142.37364308 519.53167525 -144.5 520.9375 C-145.27754639 521.45183594 -146.05509277 521.96617187 -146.85620117 522.49609375 C-163.561787 533.34717964 -180.6389513 541.32156807 -201 539 C-211.88067085 536.55150517 -220.07462344 529.20835547 -226 520 C-227.57878952 516.56821234 -228.25137101 513.87526752 -228.26171303 510.10560131 C-228.26917852 509.14119568 -228.27664401 508.17679005 -228.28433573 507.18316001 C-228.28143363 505.60582657 -228.28143363 505.60582657 -228.2784729 503.99662781 C-228.2842653 502.87346234 -228.2900577 501.75029687 -228.29602563 500.59309608 C-228.31305797 496.8220449 -228.31590497 493.05111586 -228.31884766 489.2800293 C-228.3281436 486.57981161 -228.33822444 483.87960751 -228.34928894 481.17939758 C-228.37155867 475.36215928 -228.38657367 469.54493856 -228.39665604 463.72766685 C-228.41124391 455.31688382 -228.43678104 446.90616204 -228.46498732 438.49541495 C-228.51045334 424.8494172 -228.54706894 411.20341064 -228.578125 397.55737305 C-228.60831132 384.30182344 -228.64266197 371.0462954 -228.68261719 357.79077148 C-228.68630951 356.56508673 -228.68630951 356.56508673 -228.69007643 355.31464066 C-228.70245104 351.2153581 -228.71490757 347.1160758 -228.72740483 343.01679361 C-228.83096979 309.01122506 -228.92017398 275.00563252 -229 241 C-229.54296722 241.21194 -230.08593445 241.42388 -230.64535522 241.64224243 C-231.3609964 241.91708466 -232.07663757 242.19192688 -232.81396484 242.47509766 C-233.52193207 242.74891266 -234.22989929 243.02272766 -234.95932007 243.30484009 C-240.32554254 245.1328498 -246.07825415 244.64058195 -251.375 242.875 C-259.14164292 237.32739791 -262.16897344 229.31629054 -264.25 220.25 C-267.85163002 197.16682577 -263.682424 176.09939787 -250.796875 156.6796875 C-240.5599088 142.68439454 -228.52857052 130.51763188 -214 121 C-217.95609962 119.68130013 -219.68698408 120.62783281 -223.6328125 121.921875 Z " fill="#000000" transform="translate(1684,407)"/>
<path d="M0 0 C0.96695801 0.25861816 1.93391602 0.51723633 2.93017578 0.78369141 C29.18643294 7.89231543 54.39375872 17.4357593 79 29 C79.95036133 29.44424316 80.90072266 29.88848633 81.87988281 30.34619141 C119.79100437 48.22587786 155.75276337 72.38034535 186.59375 100.8046875 C187.91428589 102.00946213 189.24261741 103.2065332 190.60375977 104.36523438 C196.76707015 109.62759841 202.49093371 115.30481418 208.2175293 121.03222656 C209.92543056 122.73794598 211.64118045 124.43549027 213.35742188 126.1328125 C219.31210588 132.05780859 224.91348372 138.05745027 230.12426758 144.65673828 C231.91994918 146.89999638 233.79733313 149.01815375 235.75 151.125 C295.7539106 218.03412253 330.61187621 309.40700908 340 398 C340.10441406 398.96615234 340.20882812 399.93230469 340.31640625 400.92773438 C349.20494881 487.16909982 333.11094277 577.93201289 293.08789062 654.89794922 C291.88206487 657.22787736 290.69916158 659.56883178 289.515625 661.91015625 C274.64293445 691.09569497 255.98537471 717.89311144 235 743 C234.57025879 743.5161084 234.14051758 744.0322168 233.69775391 744.56396484 C220.89973787 759.88772448 207.32286396 775.13617948 192.140625 788.13671875 C189.66813514 790.28886777 187.27728643 792.51980719 184.875 794.75 C179.11957354 799.9915491 173.08250132 804.78918983 166.90966797 809.52734375 C164.95191648 811.03708 163.00858152 812.5640426 161.06640625 814.09375 C145.53503096 826.24946633 129.11107317 837.19318856 112 847 C111.33000977 847.38575195 110.66001953 847.77150391 109.96972656 848.16894531 C104.69006128 851.19459028 99.36342175 854.12562042 94 857 C93.19804199 857.43038574 92.39608398 857.86077148 91.56982422 858.30419922 C12.94054239 900.05713741 -78.83543819 915.14627874 -256 889 C-299.76407125 875.5483638 -341.13646164 855.76438911 -379 830 C-379.75104004 829.49009521 -380.50208008 828.98019043 -381.27587891 828.45483398 C-391.32417933 821.58024729 -400.88186925 814.24013985 -410.23974609 806.45605469 C-412.69949478 804.42138879 -415.19694797 802.43426675 -417.6875 800.4375 C-423.46373897 795.70599184 -428.90093037 790.63770701 -434.34716797 785.53515625 C-435.95848223 784.03856185 -437.58652475 782.56313248 -439.22265625 781.09375 C-447.64497152 773.50189396 -455.36990733 765.3818141 -463 757 C-463.84691406 756.07960938 -464.69382812 755.15921875 -465.56640625 754.2109375 C-486.40825165 731.37552428 -504.6883578 705.82730503 -520 679 C-520.48678223 678.14744629 -520.97356445 677.29489258 -521.47509766 676.41650391 C-534.65887032 653.14616777 -545.99844361 629.19075352 -555 604 C-555.38639648 602.9284668 -555.77279297 601.85693359 -556.17089844 600.75292969 C-571.70217452 557.28358279 -581.3060016 510.25060576 -582 464 C-582.02046387 462.77442383 -582.04092773 461.54884766 -582.06201172 460.28613281 C-583.1286625 389.16954878 -570.30943565 319.88300372 -541 255 C-540.55688477 254.01741211 -540.11376953 253.03482422 -539.65722656 252.02246094 C-526.88806498 223.97507681 -511.24635693 197.08274633 -492.33007812 172.72705078 C-490.32280761 170.12069402 -488.38629555 167.46272374 -486.4375 164.8125 C-479.54721425 155.6296056 -471.99868632 146.99068559 -464.265625 138.51171875 C-463.01635154 137.12674834 -461.77379803 135.73523345 -460.56225586 134.31713867 C-455.79528218 128.75460769 -450.70084493 123.54765013 -445.51196289 118.3815918 C-444.06475615 116.93974779 -442.62297974 115.49262884 -441.18164062 114.04492188 C-435.95746009 108.81671198 -430.62602108 103.79282274 -425 99 C-423.95148854 98.07476787 -422.90453684 97.14776426 -421.859375 96.21875 C-412.00674372 87.56296079 -401.5692793 79.75377476 -391 72 C-390.35530762 71.52288574 -389.71061523 71.04577148 -389.04638672 70.55419922 C-315.98999248 16.5332 -223.62211908 -13.78780795 0 0 Z M-179 2 C-180.23669434 2.17692383 -181.47338867 2.35384766 -182.74755859 2.53613281 C-269.17316343 15.20299149 -353.05826848 52.32609072 -417.59375 111.8046875 C-418.92650765 113.0206125 -420.26733828 114.22843027 -421.63891602 115.40039062 C-427.47584644 120.39638824 -432.93419385 125.74804589 -438.36303711 131.17773438 C-439.92608734 132.73860327 -441.49697365 134.29127888 -443.06835938 135.84375 C-448.76755368 141.51192256 -454.07569827 147.28974266 -459.07080078 153.59716797 C-460.94963837 155.93727421 -462.91123136 158.16220729 -464.9375 160.375 C-469.96639315 165.98795751 -474.49677065 171.96504938 -479 178 C-479.49661133 178.6614502 -479.99322266 179.32290039 -480.50488281 180.00439453 C-489.40350981 191.90346313 -497.40969206 204.23034066 -505 217 C-505.51449707 217.8652832 -506.02899414 218.73056641 -506.55908203 219.62207031 C-538.00481174 272.85327383 -557.78660225 331.80198787 -565.25 393.1875 C-565.33317474 393.86920258 -565.41634949 394.55090515 -565.50204468 395.25326538 C-575.24428573 476.17496176 -561.57572736 558.90094242 -528 633 C-527.62311035 633.84723633 -527.2462207 634.69447266 -526.85791016 635.56738281 C-507.84203394 678.20594241 -480.43570772 716.67839124 -449 751 C-448.52916992 751.51594727 -448.05833984 752.03189453 -447.57324219 752.56347656 C-439.76930082 761.11017247 -431.97062205 769.55336904 -423.17578125 777.1015625 C-420.69347802 779.26745005 -418.28944855 781.50876957 -415.875 783.75 C-410.07120158 789.04075547 -403.96653055 793.87247543 -397.7421875 798.65625 C-396.08044502 799.93795272 -394.42943787 801.23218567 -392.78125 802.53125 C-371.94994794 818.880275 -349.42320918 832.70755255 -326 845 C-325.11473633 845.46792969 -324.22947266 845.93585937 -323.31738281 846.41796875 C-261.30776186 879.0089657 -190.59789329 895.28383585 -120.6875 895.1875 C-119.86573273 895.18689575 -119.04396545 895.1862915 -118.19729614 895.18566895 C-54.30962239 895.05933717 7.69643923 880.92779934 66 855 C66.86173828 854.61875977 67.72347656 854.23751953 68.61132812 853.84472656 C96.37853441 841.45302624 122.71171797 825.23561111 147 807 C147.60279785 806.55027832 148.2055957 806.10055664 148.82666016 805.63720703 C160.7559481 796.7147348 172.00432616 787.04101069 183 777 C183.94488281 776.14792969 184.88976563 775.29585937 185.86328125 774.41796875 C195.1109828 766.05366129 204.22170197 757.47815527 212.30859375 747.96875 C214.23867842 745.72218493 216.24418139 743.55416096 218.25 741.375 C223.35310006 735.7174035 228.01408627 729.75419829 232.66210938 723.72314453 C233.87887099 722.15600887 235.11794956 720.60626487 236.359375 719.05859375 C248.53037956 703.72231116 259.36972272 687.04415953 269 670 C269.45294434 669.19949219 269.90588867 668.39898438 270.37255859 667.57421875 C317.58455088 583.6279697 338.28858807 484.79451436 325 389 C324.82839355 387.76169434 324.65678711 386.52338867 324.47998047 385.24755859 C312.07678109 299.02370877 275.39447209 215.18437465 216.3359375 150.58203125 C215.08185637 149.1958312 213.83344807 147.80378369 212.6237793 146.37866211 C207.32742729 140.16743387 201.58152458 134.4299538 195.80297852 128.67260742 C194.066064 126.941053 192.33456111 125.20421641 190.60351562 123.46679688 C184.90674988 117.76594615 179.18519321 112.17621945 173 107 C172.37407959 106.46737549 171.74815918 105.93475098 171.10327148 105.38598633 C148.96520804 86.62714034 125.24337156 70.29247387 100 56 C99.15614746 55.51595703 98.31229492 55.03191406 97.44287109 54.53320312 C46.64758264 25.52822473 -10.8684619 7.35029009 -69 1 C-69.78759705 0.91386444 -70.57519409 0.82772888 -71.38665771 0.73898315 C-87.43325242 -0.964479 -103.37164858 -1.36236235 -119.5 -1.3125 C-121.34268463 -1.30976578 -121.34268463 -1.30976578 -123.22259521 -1.30697632 C-141.9905508 -1.26017914 -160.40424971 -0.72389939 -179 2 Z " fill="#000000" transform="translate(1618,348)"/>
<path d="M0 0 C22.44 0 44.88 0 68 0 C80.8643732 16.37283862 80.8643732 16.37283862 86.0625 23.0625 C86.65192383 23.82071045 87.24134766 24.5789209 87.84863281 25.36010742 C93.70861405 32.90335951 99.52919241 40.47638077 105.34375 48.0546875 C110.20739731 54.38690364 115.09480199 60.69990277 120 67 C125.69371836 74.3128504 131.35773071 81.64738878 137 89 C138.72854927 91.25047494 140.45793183 93.50030808 142.1875 95.75 C143.32251953 97.22726562 143.32251953 97.22726562 144.48046875 98.734375 C147.64191151 102.83199693 150.82258443 106.91475141 154 111 C154.495 56.55 154.495 56.55 155 1 C169.52 1 184.04 1 199 1 C199 50.5 199 100 199 151 C176.89 151 154.78 151 132 151 C127.1351128 145.5270019 122.57972038 140.30625066 118.3125 134.4375 C114.13519565 128.7784678 109.83596383 123.25069618 105.375 117.8125 C100.25394295 111.56622539 95.28726647 105.23068438 90.38671875 98.80908203 C87.63010177 95.21286164 84.8451509 91.63858852 82.0625 88.0625 C81.1648291 86.90886963 81.1648291 86.90886963 80.24902344 85.73193359 C75.29800848 79.37422733 70.32483275 73.03420895 65.33984375 66.703125 C63.94365549 64.9283784 62.54968238 63.15191104 61.15625 61.375 C52.97965436 50.32376136 52.97965436 50.32376136 44 40 C43.67 76.63 43.34 113.26 43 151 C28.81 151 14.62 151 0 151 C0 101.17 0 51.34 0 0 Z " fill="#000000" transform="translate(1108,1379)"/>
<path d="M0 0 C21.8625 -0.061875 43.725 -0.12375 66.25 -0.1875 C73.11586914 -0.21481201 79.98173828 -0.24212402 87.05566406 -0.27026367 C95.53466797 -0.28381348 95.53466797 -0.28381348 99.5223999 -0.28633118 C102.26752821 -0.29089415 105.01222032 -0.30018828 107.75726318 -0.31672668 C159.12192438 -0.61234057 159.12192438 -0.61234057 171.50390625 11.17578125 C176.44892899 17.20535206 178.862739 24.38299609 180 32 C180.11085938 32.721875 180.22171875 33.44375 180.3359375 34.1875 C182.42262806 50.88102449 182.24107538 67.68581971 173 82.125 C169.16011273 86.56220307 163.24088303 88.64285644 158 91 C160.88879113 92.92586075 163.09704596 93.72620065 166.375 94.75 C172.42839576 96.92219479 175.00951546 99.01059667 177.921875 104.84765625 C182.04614238 114.63306424 181.12410262 125.66583097 181.0625 136.0625 C181.041875 140.991875 181.02125 145.92125 181 151 C166.48 151 151.96 151 137 151 C135.75 138 135.75 138 135.38574219 133.94921875 C134.55650326 124.29429617 134.55650326 124.29429617 130 116 C115.6203878 107.33627395 93.02736844 110.57094028 76.6282959 110.39910889 C72.94026288 110.35852347 69.25236896 110.30778149 65.56445312 110.2578125 C58.3763605 110.1611388 51.18835525 110.08093556 44 110 C44 123.53 44 137.06 44 151 C29.48 151 14.96 151 0 151 C0 101.17 0 51.34 0 0 Z M45 34 C45 47.86 45 61.72 45 76 C53.04369616 76.02109976 61.08728926 76.04111995 69.13098907 76.05175018 C72.87859814 76.05698198 76.62618376 76.06394598 80.3737793 76.07543945 C99.78698621 76.19179665 99.78698621 76.19179665 119.19140625 75.74609375 C121.00620483 75.67733032 121.00620483 75.67733032 122.85766602 75.60717773 C126.70393755 74.86398161 128.95518159 73.43386519 132 71 C135.2140094 65.52804729 135.46340848 60.68994441 135.375 54.4375 C135.38660156 53.61314453 135.39820313 52.78878906 135.41015625 51.93945312 C135.38220061 46.1107024 134.54887027 41.54887027 130.25 37.25 C124.8522016 34.25122311 119.29041211 33.70936452 113.22875977 33.77294922 C112.11531944 33.77251114 112.11531944 33.77251114 110.97938538 33.77206421 C108.54993596 33.77344658 106.12080143 33.78895561 103.69140625 33.8046875 C101.99747383 33.80842153 100.30353924 33.81126666 98.60960388 33.81326294 C94.16921946 33.82086872 89.7289676 33.84049072 85.28863525 33.8626709 C79.95130401 33.88680928 74.61392823 33.89592487 69.27655792 33.90757751 C61.18427998 33.92691709 53.09229245 33.96526085 45 34 Z " fill="#000000" transform="translate(1340,1379)"/>
<path d="M0 0 C53.79 0 107.58 0 163 0 C163 10.56 163 21.12 163 32 C123.73 32 84.46 32 44 32 C44 40.58 44 49.16 44 58 C81.29 58 118.58 58 157 58 C157 68.56 157 79.12 157 90 C120.04 90 83.08 90 45 90 C45 98.58 45 107.16 45 116 C84.6 116 124.2 116 165 116 C165 127.22 165 138.44 165 150 C110.55 150 56.1 150 0 150 C0 100.5 0 51 0 0 Z " fill="#000000" transform="translate(1551,1380)"/>
<path d="M0 0 C14.52 0 29.04 0 44 0 C45.08210472 4.3284189 45.15966084 8.31783105 45.17358398 12.74072266 C45.180271 13.62257233 45.18695801 14.504422 45.19384766 15.41299438 C45.20788697 17.32707978 45.21978458 19.24118181 45.22979546 21.15529251 C45.24624111 24.19126631 45.26948322 27.22711809 45.29469299 30.26303101 C45.36535114 38.89485556 45.42541246 47.52673111 45.47680664 56.15869141 C45.50873604 61.44129065 45.55005094 66.723751 45.59700203 72.00623703 C45.61294394 74.01311094 45.62530122 76.02001682 45.63390923 78.02693558 C45.64616911 80.84573577 45.67036429 83.66421431 45.69702148 86.48291016 C45.69761063 87.30094116 45.69819977 88.11897217 45.69880676 88.96179199 C45.80064071 97.1567337 46.40208955 105.62460199 52 112 C57.46936996 115.37471763 62.49198153 116.12128823 68.82495117 116.14526367 C69.97352097 116.15164352 71.12209076 116.15802338 72.3054657 116.16459656 C74.15552971 116.16626579 74.15552971 116.16626579 76.04296875 116.16796875 C77.96113152 116.17296135 77.96113152 116.17296135 79.91804504 116.17805481 C82.62383874 116.18403182 85.32960057 116.18589632 88.03540039 116.18530273 C91.47695694 116.18520151 94.91830532 116.19881856 98.35981274 116.21607494 C101.67086721 116.22997619 104.98188557 116.22928672 108.29296875 116.23046875 C109.5162236 116.23765427 110.73947845 116.24483978 111.99980164 116.25224304 C124.29246617 116.43263273 124.29246617 116.43263273 135.4375 111.9375 C144.93839571 101.04622931 142.19599907 82.20938098 142.31640625 68.67578125 C142.33701319 66.71851704 142.35801054 64.7612569 142.37937927 62.80400085 C142.43421417 57.6864454 142.48379136 52.5688524 142.53222656 47.45123291 C142.58272578 42.21550204 142.63826254 36.97982478 142.69335938 31.74414062 C142.80046803 21.4961397 142.90201527 11.24809195 143 1 C149.24795675 0.97472876 155.49590041 0.95716656 161.74389648 0.94506836 C163.87118014 0.94002702 165.99846031 0.93319409 168.12573242 0.92456055 C171.17627826 0.91248621 174.22677845 0.90676986 177.27734375 0.90234375 C178.71327126 0.89460182 178.71327126 0.89460182 180.1782074 0.88670349 C181.49946373 0.88659019 181.49946373 0.88659019 182.84741211 0.88647461 C183.62684677 0.884254 184.40628143 0.88203339 185.20933533 0.87974548 C187 1 187 1 188 2 C188.10602806 4.96355868 188.14677452 7.90393247 188.14526367 10.86816406 C188.14862228 11.80018143 188.1519809 12.73219879 188.15544128 13.69245911 C188.16500085 16.80019439 188.16689834 19.90787588 188.16796875 23.015625 C188.17118307 25.18349225 188.17454727 27.35135928 188.17805481 29.51922607 C188.18406213 34.0859019 188.18589359 38.65255878 188.18530273 43.21923828 C188.1852022 49.01389776 188.1987329 54.80843168 188.21607494 60.60306168 C188.22732301 65.09554577 188.2292179 69.58800102 188.22869301 74.08049774 C188.22985863 76.21228204 188.23419872 78.34406745 188.24202538 80.47583771 C188.39864277 127.63226122 188.39864277 127.63226122 176.23046875 140.06640625 C152.69121981 160.47258528 99.04342578 155.61869508 69.60693359 153.74072266 C61.03700969 153.12723596 52.51167864 152.16799987 44 151 C42.6998999 150.82380127 42.6998999 150.82380127 41.37353516 150.64404297 C28.97319238 148.87697483 16.4936374 145.83370084 8 136 C-2.87792791 120.55946294 -0.13959401 99.47250468 -0.09765625 81.54296875 C-0.09578811 79.18500295 -0.09436608 76.82703676 -0.09336853 74.46907043 C-0.08957451 68.30263167 -0.07977127 62.13621695 -0.06866455 55.9697876 C-0.05838301 49.66150233 -0.05385654 43.35321313 -0.04882812 37.04492188 C-0.03814583 24.69660239 -0.02057471 12.34830697 0 0 Z " fill="#000000" transform="translate(888,1379)"/>
<path d="M0 0 C0.99261337 0.00222061 1.98522675 0.00444122 3.00791931 0.00672913 C4.12900589 0.00680466 5.25009247 0.00688019 6.40515137 0.00695801 C8.2348069 0.01469994 8.2348069 0.01469994 10.10142517 0.02259827 C11.96377052 0.02472069 11.96377052 0.02472069 13.86373901 0.02688599 C17.16982383 0.03154861 20.47584039 0.04053955 23.78190613 0.05158997 C27.15338042 0.06180625 30.52486175 0.06638407 33.89634705 0.07142639 C40.51550667 0.08248056 47.13463385 0.09923715 53.75376892 0.12025452 C59.25270876 9.98366685 64.72348553 19.85863501 70.06626892 29.80775452 C74.28445629 37.63475227 78.59319911 45.40021567 83.00376892 53.12025452 C88.66494616 63.0414134 94.02668018 73.10645979 99.35517883 83.20832825 C103.88660368 91.79382808 108.4928597 100.31886233 113.31626892 108.74525452 C118.56188545 117.91060786 123.59574798 127.17881532 128.56626892 136.49525452 C129.10805283 137.508367 129.10805283 137.508367 129.66078186 138.54194641 C130.68004307 140.44949726 131.69610405 142.35870965 132.71080017 144.26869202 C133.29837097 145.37390198 133.88594177 146.47911194 134.49131775 147.61781311 C135.75376892 150.12025452 135.75376892 150.12025452 135.75376892 151.12025452 C119.58376892 151.12025452 103.41376892 151.12025452 86.75376892 151.12025452 C84.79439392 147.57275452 82.83501892 144.02525452 80.81626892 140.37025452 C80.19888855 139.25811584 79.58150818 138.14597717 78.94541931 137.00013733 C78.21826721 135.67514221 78.21826721 135.67514221 77.47642517 134.32337952 C76.73017883 132.97228088 76.73017883 132.97228088 75.96885681 131.59388733 C74.75376892 129.12025452 74.75376892 129.12025452 73.75376892 125.12025452 C42.07376892 125.45025452 10.39376892 125.78025452 -22.24623108 126.12025452 C-26.53623108 134.37025452 -30.82623108 142.62025452 -35.24623108 151.12025452 C-51.41623108 151.12025452 -67.58623108 151.12025452 -84.24623108 151.12025452 C-75.12490755 132.87760746 -75.12490755 132.87760746 -70.62123108 124.74525452 C-69.58669126 122.86281867 -68.55286822 120.97998877 -67.51966858 119.09681702 C-66.9869635 118.12647522 -66.45425842 117.15613342 -65.90541077 116.15638733 C-62.99218274 110.82547154 -60.12092601 105.47201711 -57.24623108 100.12025452 C-52.43199041 91.16456875 -47.58832585 82.22580421 -42.71278381 73.30335999 C-39.064181 66.62482787 -35.43204833 59.93753718 -31.80873108 53.24525452 C-31.27143372 52.25315979 -30.73413635 51.26106506 -30.18055725 50.23890686 C-27.40082523 45.1048569 -24.62441538 39.96903474 -21.85169983 34.83119202 C-16.94981248 25.75380658 -12.04386275 16.68016829 -6.99623108 7.68275452 C-6.43983948 6.68888733 -6.43983948 6.68888733 -5.87220764 5.67494202 C-2.75167581 0.14731407 -2.75167581 0.14731407 0 0 Z M24.75376892 31.12025452 C24.51066483 31.60868332 24.26756073 32.09711212 24.01708984 32.6003418 C21.43928622 37.77842607 18.85844213 42.95498726 16.27598572 48.13075256 C15.318206 50.05127792 14.36115019 51.97216449 13.40489197 53.89344788 C8.20263515 64.34438586 2.98007269 74.77160169 -2.60900879 85.02258301 C-4.57816711 88.37877155 -4.57816711 88.37877155 -5.24623108 92.12025452 C15.21376892 92.12025452 35.67376892 92.12025452 56.75376892 92.12025452 C54.11376892 86.84025452 51.47376892 81.56025452 48.75376892 76.12025452 C46.13658142 70.85072327 46.13658142 70.85072327 45.00205994 68.5660553 C40.42344803 59.36106505 35.70233854 50.2402317 30.88267517 41.15931702 C29.12219383 37.83750732 27.41801516 34.4915572 25.75376892 31.12025452 C25.42376892 31.12025452 25.09376892 31.12025452 24.75376892 31.12025452 Z " fill="#000000" transform="translate(1811.2462310791016,1378.8797454833984)"/>
<path d="M0 0 C14.85 0 29.7 0 45 0 C45 37.95 45 75.9 45 115 C78.99 115 112.98 115 148 115 C148 126.55 148 138.1 148 150 C99.16 150 50.32 150 0 150 C0 100.5 0 51 0 0 Z " fill="#000000" transform="translate(1964,1380)"/>
<path d="M0 0 C12.87 0 25.74 0 39 0 C45.1291332 7.80071498 51.24664242 15.59705834 57.28125 23.46875 C61.02533645 28.34165058 64.80970933 33.18331414 68.59008789 38.02807617 C71.65701169 41.96480585 74.70296581 45.91548554 77.71484375 49.89453125 C78.30869873 50.67795898 78.90255371 51.46138672 79.5144043 52.26855469 C80.65079795 53.77053173 81.78390604 55.27500165 82.91333008 56.78222656 C83.67552856 57.78914551 83.67552856 57.78914551 84.453125 58.81640625 C84.89817383 59.40881104 85.34322266 60.00121582 85.80175781 60.61157227 C86.97009532 62.14543968 86.97009532 62.14543968 89 63 C89 42.21 89 21.42 89 0 C97.25 0 105.5 0 114 0 C114 28.38 114 56.76 114 86 C101.13 86 88.26 86 75 86 C66.04034896 75.92039258 66.04034896 75.92039258 62.1875 70.8125 C61.33661256 69.69219529 60.48502472 68.57242228 59.6328125 67.453125 C59.20129883 66.88529297 58.76978516 66.31746094 58.32519531 65.73242188 C56.09818614 62.82106279 53.83088512 59.94166613 51.5625 57.0625 C51.1072998 56.48443604 50.65209961 55.90637207 50.18310547 55.31079102 C49.25699458 54.13496618 48.33072436 52.95926682 47.40429688 51.78369141 C45.98101709 49.97588854 44.56040208 48.1660235 43.140625 46.35546875 C42.67108398 45.75694092 42.20154297 45.15841309 41.71777344 44.54174805 C40.79089839 43.35996626 39.86445633 42.17784473 38.93847656 40.99536133 C35.47297712 36.57791913 31.93938356 32.21921377 28.36328125 27.890625 C27 26 27 26 27 24 C26.01 24 25.02 24 24 24 C24 44.46 24 64.92 24 86 C16.08 86 8.16 86 0 86 C0 57.62 0 29.24 0 0 Z " fill="#000000" transform="translate(1289,1579)"/>
<path d="M0 0 C1.31750748 -0.0033284 2.63501495 -0.0066568 3.9924469 -0.01008606 C6.76849183 -0.01603867 9.54450579 -0.01792987 12.32055664 -0.01733398 C15.85167557 -0.01723236 19.38259347 -0.03090254 22.91366482 -0.04810619 C26.3174457 -0.06199082 29.72119125 -0.06131703 33.125 -0.0625 C34.37945419 -0.06968552 35.63390839 -0.07687103 36.92637634 -0.08427429 C55.89175789 -0.03530128 55.89175789 -0.03530128 63.12890625 6.16796875 C67.81334077 12.11846666 68.39426264 16.73798989 68.12890625 24.16796875 C67.63390625 26.64296875 67.63390625 26.64296875 67.12890625 29.16796875 C59.53890625 29.16796875 51.94890625 29.16796875 44.12890625 29.16796875 C43.13890625 27.18796875 42.14890625 25.20796875 41.12890625 23.16796875 C35.21347221 17.44971585 26.17343298 18.98181109 18.51928711 18.98266602 C16.33362158 18.98048592 14.14846663 18.96232156 11.96289062 18.94335938 C0.22901104 18.53372174 0.22901104 18.53372174 -10.24609375 22.98046875 C-14.84384897 29.16975462 -14.20392529 35.71698761 -14.18359375 43.10546875 C-14.19970703 44.27271484 -14.21582031 45.43996094 -14.23242188 46.64257812 C-14.33732215 54.87249623 -14.33732215 54.87249623 -10.87109375 62.16796875 C-2.95144563 66.50136112 5.03082977 66.32548785 13.81640625 66.29296875 C14.84185547 66.29683594 15.86730469 66.30070312 16.92382812 66.3046875 C28.71714977 66.43553022 28.71714977 66.43553022 40.19140625 64.16796875 C43.0973819 61.51737323 43.0973819 61.51737323 44.12890625 53.16796875 C33.56890625 53.16796875 23.00890625 53.16796875 12.12890625 53.16796875 C12.12890625 47.88796875 12.12890625 42.60796875 12.12890625 37.16796875 C31.26890625 37.16796875 50.40890625 37.16796875 70.12890625 37.16796875 C68.61312823 73.54664122 68.61312823 73.54664122 63.12890625 79.16796875 C49.90407823 88.03548349 34.36204536 87.67466796 19.09204102 87.61401367 C15.83350177 87.60551335 12.57672607 87.63432853 9.31835938 87.66601562 C-21.87160176 87.77069986 -21.87160176 87.77069986 -32.87109375 78.16796875 C-39.63272238 70.87252733 -40.02561003 63.50943013 -40.07421875 53.96484375 C-40.08276886 52.64809662 -40.08276886 52.64809662 -40.0914917 51.30474854 C-40.10090635 49.45236401 -40.10746157 47.59996301 -40.11132812 45.74755859 C-40.12101503 42.94077711 -40.15206435 40.13473443 -40.18359375 37.328125 C-40.3187355 14.37947119 -40.3187355 14.37947119 -32.87109375 6.16796875 C-22.71684792 -0.57708985 -11.77312494 0.01042709 0 0 Z " fill="#000000" transform="translate(1462.87109375,1579.83203125)"/>
<path d="M0 0 C12.87 0 25.74 0 39 0 C42.3 4.29 45.6 8.58 49 13 C51.33063803 16.0021778 53.6630549 19.00275654 56 22 C62.85982382 30.8105022 69.70398753 39.63238606 76.43359375 48.54296875 C77.32002563 49.71267212 77.32002563 49.71267212 78.22436523 50.90600586 C79.38995006 52.4446804 80.55233274 53.98578696 81.71118164 55.52954102 C82.2396167 56.22619873 82.76805176 56.92285645 83.3125 57.640625 C83.78300781 58.26485352 84.25351563 58.88908203 84.73828125 59.53222656 C85.95440557 61.13834664 85.95440557 61.13834664 88 62 C88 41.87 88 21.74 88 1 C96.25 1 104.5 1 113 1 C113 28.72 113 56.44 113 85 C100.13 85 87.26 85 74 85 C62.81024096 71.57228916 62.81024096 71.57228916 59.0625 66.625 C58.22980922 65.53206223 57.39645121 64.43963257 56.5625 63.34765625 C56.14355469 62.79867676 55.72460938 62.24969727 55.29296875 61.68408203 C53.07260172 58.79207075 50.81797989 55.92715906 48.5625 53.0625 C48.10858887 52.48564453 47.65467773 51.90878906 47.18701172 51.31445312 C45.30588279 48.92500076 43.4232995 46.53669846 41.54003906 44.14892578 C40.56205301 42.90873549 39.58443111 41.66825795 38.60717773 40.42749023 C37.69866737 39.27400235 36.78939691 38.12111247 35.87915039 36.96899414 C32.513188 32.69460257 29.26722894 28.35630525 26 24 C25.67 44.13 25.34 64.26 25 85 C16.75 85 8.5 85 0 85 C0 56.95 0 28.9 0 0 Z " fill="#000000" transform="translate(1596,1580)"/>
<path d="M0 0 C30.36 0 60.72 0 92 0 C92 6.27 92 12.54 92 19 C69.89 19 47.78 19 25 19 C25 23.95 25 28.9 25 34 C46.12 34 67.24 34 89 34 C89 39.94 89 45.88 89 52 C67.88 52 46.76 52 25 52 C25 56.95 25 61.9 25 67 C47.77 67 70.54 67 94 67 C94 73.27 94 79.54 94 86 C62.98 86 31.96 86 0 86 C0 57.62 0 29.24 0 0 Z " fill="#000000" transform="translate(1179,1579)"/>
<path d="M0 0 C30.36 0 60.72 0 92 0 C92 5.94 92 11.88 92 18 C70.22 18 48.44 18 26 18 C26 22.95 26 27.9 26 33 C46.46 33 66.92 33 88 33 C88 38.94 88 44.88 88 51 C67.54 51 47.08 51 26 51 C26 55.95 26 60.9 26 66 C48.11 66 70.22 66 93 66 C93 72.27 93 78.54 93 85 C62.31 85 31.62 85 0 85 C0 56.95 0 28.9 0 0 Z " fill="#000000" transform="translate(1730,1580)"/>
<path d="M0 0 C7.92 0 15.84 0 24 0 C24 27.72 24 55.44 24 84 C16.08 84 8.16 84 0 84 C0 56.28 0 28.56 0 0 Z " fill="#000000" transform="translate(1551,1581)"/>
</svg>
